<?xml version="1.0" encoding="UTF-8"?>
<svg id="Capa_1" data-name="Capa 1" xmlns="http://www.w3.org/2000/svg" viewBox="0 0 285.76 198.31">
  <defs>
    <style>
      .cls-1 {
        fill: #fff;
      }

      .cls-2 {
        fill: #dedc0a;
      }
    </style>
  </defs>
  <path class="cls-2" d="m111.07,109.67v8.99c1-2.89,2.77-6.42,6.14-9.39v-5.75l-6.14,6.14Z"/>
  <path class="cls-2" d="m164.39,112.29v-12.81l-6.14,5.71v1.67c2.34,1.56,4.42,3.38,6.14,5.43"/>
  <polygon class="cls-2" points="111.07 105.48 117.21 99.34 117.21 90.29 111.07 96.44 111.07 105.48"/>
  <polygon class="cls-2" points="111.07 92.18 117.21 86.04 117.21 76.99 111.07 83.14 111.07 92.18"/>
  <polygon class="cls-2" points="111.07 78.88 117.21 72.74 117.21 63.7 111.07 69.84 111.07 78.88"/>
  <polygon class="cls-2" points="111.07 65.9 117.21 59.76 117.21 50.71 111.07 56.86 111.07 65.9"/>
  <polygon class="cls-2" points="111.07 52.6 117.21 46.46 117.21 37.41 111.07 43.56 111.07 52.6"/>
  <polygon class="cls-2" points="111.07 39.3 117.21 33.16 117.21 24.12 111.07 30.26 111.07 39.3"/>
  <polygon class="cls-2" points="111.07 26.32 117.21 20.18 117.21 11.13 111.07 17.28 111.07 26.32"/>
  <polygon class="cls-2" points="111.07 13.97 117.21 7.83 117.21 -1.22 111.07 4.93 111.07 13.97"/>
  <polygon class="cls-2" points="158.25 88.38 164.39 82.24 164.39 73.19 158.25 79.34 158.25 88.38"/>
  <polygon class="cls-2" points="158.25 75.08 164.39 68.94 164.39 59.9 158.25 66.04 158.25 75.08"/>
  <polygon class="cls-2" points="158.25 62.1 164.39 55.96 164.39 46.91 158.25 53.06 158.25 62.1"/>
  <polygon class="cls-2" points="158.25 48.8 164.39 42.66 164.39 33.61 158.25 39.76 158.25 48.8"/>
  <polygon class="cls-2" points="158.25 35.5 164.39 29.36 164.39 20.32 158.25 26.46 158.25 35.5"/>
  <polygon class="cls-2" points="158.25 22.52 164.39 16.38 164.39 7.33 158.25 13.48 158.25 22.52"/>
  <polygon class="cls-2" points="158.25 10.17 164.39 4.03 164.39 -5.02 158.25 1.13 158.25 10.17"/>
  <polygon class="cls-2" points="158.25 101.22 164.39 95.07 164.39 86.03 158.25 92.17 158.25 101.22"/>
  <g>
    <path class="cls-1" d="m165.65,142.77c-4.3,7.79-14.41,13.05-25.2,13.05-15.91,0-28.96-9.7-28.96-25.89s13.05-25.82,28.96-25.82c9.9,0,18.78,4.51,24.11,11.41l-9.22,5.81c-3.28-4.3-8.67-7.51-14.89-7.51-9.7,0-17.69,5.12-17.69,16.12,0,10.18,7.99,16.19,17.69,16.19,5.81,0,12.02-2.94,14.41-6.83v-4.03h-15.98v-9.36h26.77v16.87Z"/>
    <path class="cls-1" d="m3.42,104.62h23.91c14.55,0,26.5,6.22,26.5,24.93s-11.82,25-26.5,25H3.42v-49.93Zm22.27,40.57c7.38,0,16.32-1.3,16.32-15.57s-9.02-15.57-16.32-15.57h-10.59v31.15h10.59Z"/>
    <path class="cls-1" d="m81.77,103.05l29.57,51.5h-12.77l-4.3-7.65h-25.14l-4.1,7.65h-12.84l29.57-51.5Zm6.9,34.63l-6.9-13.05-6.9,13.05h13.8Z"/>
    <path class="cls-1" d="m197.14,145.81c6.42,0,10.04-1.3,10.04-5.53,0-4.51-4.71-4.99-12.09-6.01-6.83-.96-21.45-1.57-21.45-15.3,0-11.89,11.88-15.09,21.45-15.09s15.37,2.66,21.31,6.69l-6.28,7.92c-4.65-3.07-10.25-4.85-15.51-4.85-3.41,0-9.29,0-9.29,4.92s5.81,4.44,10.72,5.33c9.63,1.71,22.68,2.19,22.68,16.12,0,11.06-8.67,15.5-21.45,15.5-11.68,0-19.33-3.82-24.31-7.79l5.94-7.92c3.96,3.01,12.02,6.01,18.24,6.01"/>
    <path class="cls-1" d="m249.46,103.05l29.58,51.5h-12.77l-4.3-7.65h-25.14l-4.1,7.65h-12.84l29.57-51.5Zm6.9,34.63l-6.9-13.05-6.9,13.05h13.8Z"/>
    <polygon class="cls-1" points="176.06 178.21 181.38 178.21 181.38 179.6 174.23 179.6 174.23 166.46 176.06 166.46 176.06 178.21"/>
    <path class="cls-1" d="m195.1,174.84c0,1.56-.42,2.77-1.26,3.64-.84.87-1.97,1.31-3.39,1.31s-2.51-.44-3.33-1.31c-.83-.87-1.24-2.08-1.24-3.64v-3.61c0-1.55.41-2.77,1.24-3.65.82-.88,1.93-1.32,3.32-1.32s2.54.44,3.39,1.31c.85.88,1.27,2.09,1.27,3.65v3.61Zm-1.82-3.64c0-1.14-.25-2.01-.74-2.6-.49-.59-1.19-.89-2.1-.89s-1.55.3-2.02.89c-.47.59-.71,1.46-.71,2.6v3.64c0,1.16.24,2.03.72,2.63.47.6,1.15.89,2.03.89s1.61-.3,2.1-.89c.49-.59.73-1.47.73-2.63v-3.64Z"/>
    <path class="cls-1" d="m209.33,177.89c-.31.5-.81.94-1.49,1.33-.68.39-1.56.58-2.64.58-1.37,0-2.48-.42-3.32-1.25-.84-.84-1.26-2.03-1.26-3.58v-3.9c0-1.52.41-2.7,1.22-3.54.81-.84,1.89-1.25,3.24-1.25s2.36.34,3.08,1.03c.72.69,1.07,1.63,1.04,2.82l-.02.05h-1.72c0-.79-.2-1.4-.6-1.83-.4-.44-.98-.66-1.75-.66-.83,0-1.47.29-1.95.86-.47.57-.71,1.41-.71,2.51v3.92c0,1.12.25,1.97.74,2.56.49.59,1.16.88,2,.88.62,0,1.12-.1,1.49-.29.37-.2.64-.43.81-.71v-3.06h-2.42v-1.34h4.26v4.87Z"/>
    <rect class="cls-1" x="215.62" y="166.46" width="1.83" height="13.14"/>
    <path class="cls-1" d="m229.83,176.3c0-.6-.18-1.1-.52-1.48-.34-.39-.95-.74-1.81-1.06-1.23-.38-2.18-.88-2.84-1.49-.66-.61-.99-1.42-.99-2.43s.37-1.89,1.1-2.56c.73-.67,1.67-1,2.81-1,1.21,0,2.19.37,2.93,1.12.73.75,1.09,1.68,1.06,2.81l-.02.05h-1.76c0-.77-.21-1.39-.61-1.87-.41-.47-.95-.71-1.62-.71s-1.15.2-1.51.61c-.36.41-.54.92-.54,1.54,0,.57.19,1.05.57,1.42.38.37,1.02.72,1.92,1.05,1.2.39,2.11.91,2.74,1.54.63.63.94,1.45.94,2.46,0,1.07-.37,1.92-1.1,2.56-.74.63-1.71.95-2.9.95s-2.16-.34-3.02-1.03c-.85-.69-1.26-1.67-1.24-2.95l.02-.05h1.77c0,.89.24,1.56.71,2,.47.44,1.06.66,1.76.66s1.21-.19,1.6-.57c.38-.38.58-.9.58-1.54"/>
    <polygon class="cls-1" points="245.27 167.87 241.79 167.87 241.79 179.6 239.95 179.6 239.95 167.87 236.49 167.87 236.49 166.46 245.27 166.46 245.27 167.87"/>
    <rect class="cls-1" x="250.7" y="166.46" width="1.83" height="13.14"/>
    <path class="cls-1" d="m267.14,175.65l.02.05c.02,1.29-.34,2.3-1.09,3.02-.75.71-1.77,1.07-3.08,1.07s-2.42-.43-3.22-1.3c-.8-.86-1.2-2.07-1.2-3.63v-3.65c0-1.55.39-2.77,1.18-3.64.79-.87,1.85-1.31,3.18-1.31s2.39.35,3.14,1.04c.75.7,1.12,1.71,1.09,3.05v.05h-1.78c0-.94-.21-1.63-.62-2.07-.41-.44-1.02-.67-1.84-.67s-1.43.3-1.87.91c-.44.6-.66,1.47-.66,2.6v3.67c0,1.14.22,2.02.68,2.63.45.61,1.09.91,1.91.91s1.39-.22,1.79-.65c.4-.44.6-1.14.6-2.1h1.76Z"/>
    <path class="cls-1" d="m278.84,176.3c0-.6-.17-1.1-.52-1.48-.34-.39-.95-.74-1.81-1.06-1.23-.38-2.18-.88-2.84-1.49-.66-.61-1-1.42-1-2.43s.37-1.89,1.1-2.56c.73-.67,1.67-1,2.81-1,1.22,0,2.19.37,2.93,1.12.73.75,1.09,1.68,1.06,2.81l-.02.05h-1.76c0-.77-.21-1.39-.61-1.87-.41-.47-.95-.71-1.62-.71s-1.15.2-1.51.61c-.36.41-.54.92-.54,1.54,0,.57.19,1.05.57,1.42.38.37,1.02.72,1.91,1.05,1.2.39,2.11.91,2.74,1.54.63.63.94,1.45.94,2.46,0,1.07-.37,1.92-1.1,2.56-.74.63-1.7.95-2.9.95s-2.16-.34-3.02-1.03c-.85-.69-1.26-1.67-1.24-2.95l.02-.05h1.77c0,.89.24,1.56.71,2,.47.44,1.06.66,1.76.66s1.21-.19,1.6-.57c.38-.38.58-.9.58-1.54"/>
    <path class="cls-2" d="m152.78,183.39c0,7.52-6.23,12.81-13.92,12.81-6.22,0-13.55-5.66-13.27-13.73.28-8.07,6.59-11.6,7.51-12.99.93-1.39.55-3.9.55-3.9h4.62c.05.2,1.05,3.99-2.68,6.56-4.98,3.45-5.46,7.05-5.46,8.94,0,2.45.99,8.83,8.74,9.34,7.79.52,10.58-5.62,10.5-8.63-.07-2.94-1.55-5.31-2.87-5.2.99-1.79,3.11-3.72,5.52-3.51,2.52.22,1.48,2.32-.09,3.71-1.58,1.39.83,3.34.83,6.59Z"/>
    <path class="cls-2" d="m149.07,157.01s-4.66,1.16-9.88,1.11c-5.2-.05-9.87-1.57-9.87-1.57v9.02h19.75v-8.56Z"/>
    <path class="cls-2" d="m146.26,181.18c0,.07,0,.15-.01.22l-.2-.2-6.73-6.73-1.04-1.04c1.13-.74,1.9-1.63,2.42-2.54l1.04,1.63,4.25,6.62.23.36c.03.56.05,1.14.03,1.68Z"/>
    <path class="cls-2" d="m138.29,165.58s0,0,0,0h3.42s-3.42,0-3.42,0Z"/>
    <path class="cls-2" d="m147.09,175.69s0,.03-.03.07c0,0,0,0,0,0-.1.21-.46.83-.43.83h-.02c-.19.08-.37.46-.41.79-.07.52-.02,1.29.02,2.11.03.56.05,1.14.03,1.68,0,.07,0,.15-.01.22-.06.88-.3,1.41-.48,1.71-.82,1.42-1.91,2.89-5.23,3.06-2.07.11-3.47-.71-4.55-1.85-.07-.07-.1-.09-.12-.13-2.7-2.73-2.48-8.03,1.85-10.42.2-.11.38-.22.56-.34,1.13-.74,1.9-1.63,2.42-2.54,1.43-2.48,1.04-5.13,1.02-5.31h1.05s.46,4.3-1.02,6.93c-.45.81-1.09,1.47-1.99,1.79-.15.05-.29.11-.43.17-4.23,1.8-5.24,6.52-3.36,9.37.25.27.54.55.76.72,1.17.95,2.62,1.24,4.75.87,2.74-.47,4.09-1.7,4.45-3.18,0,0,.1-.35.13-1.06.03-.51.03-1.19-.06-2.07-.02-.21-.05-.43-.07-.66-.03-.23-.01-.54,0-.88,0-.71.95-1.87,1.18-1.91Z"/>
  </g>
</svg>