<?xml version="1.0" encoding="UTF-8"?>
<svg id="Capa_1" data-name="Capa 1" xmlns="http://www.w3.org/2000/svg" viewBox="0 0 349.8 65.53">
  <defs>
    <style>
      .cls-1 {
        fill: #706f6f;
      }
    </style>
  </defs>
  <path class="cls-1" d="m254.08,60.54c.77-.61.7-1.43.66-2.23-.02-.37-.62-.75-1.21-.76-.75-.02-1.5,0-2.24,0h-2.73c-.17-.19-.4-.42-.6-.68-.26-.35-.45-.71-.45-1.18.01-4.29.01-8.58,0-12.87,0-.65.31-1.2.56-1.75.17-.37.54-.63,1.1-.62,2.78.04,5.57.04,8.35,0,.59,0,.94.26,1.2.67.49.76.79,1.57.78,2.53-.04,4.7.02,9.41-.04,14.11-.02,1.39.34,2.72.29,4.11-.04,1.13-.47,1.98-1.39,2.64-.22.16-.41.22-.66.22-2.53,0-5.07.01-7.6,0-1.26-.01-2.05-.81-2.35-2.06-.15-.63-.2-1.25-.25-1.88-.03-.47.28-.82.28-1.26,0-.38.52-.15.6-.47.61.01,1.23-.1,1.83.07.07.02.13.17.18.16,1.42-.21,2.42.77,3.69,1.27Zm-1.57-8.31c.43.24.84.43,1.35.38.39-.04.66-.26.62-.57-.14-1.02.38-1.97.27-2.98-.03-.27.01-.52-.21-.79-.23-.27.34-.51.21-.86-.04-.11.05-.3-.01-.36-.42-.37-.21-.84-.23-1.26-.04-.77-.17-.9-.96-.87-.61.02-1.04.42-1.04,1.05,0,2.09,0,4.18,0,6.26Z"/>
  <path class="cls-1" d="m81.48,52.1v-2.85c-.45-.46-.97-.67-1.62-.62-.62.04-1.25-.01-1.87.02-.61.03-1.08-.21-1.49-.62-.24-.23-.53-.43-.69-.71-.34-.59-.69-1.22-.39-1.93.11-.25.07-.48.07-.71.01-1.65,0-3.3,0-4.95.38-.45-.6-.84-.06-1.31-.54-.68.19-1.3.1-2-.1-.75.53-1.18,1.29-1.42.76-.24,1.52-.14,2.27-.24,1.06-.14,2.07.3,3.17.07,1.07-.23,2.23-.05,3.36-.05h1.23c.59,1.8.29,3.64.35,5.45.02.53-.19.73-.71.74-1.33.01-2.66,0-3.99,0-.97,0-1.02.05-1.02,1.06,0,.41,0,.83,0,1.24.01.71.33,1.12,1.05,1.15.5.02,1,.09,1.55-.15.48-.22,1.15-.14,1.7-.04.23.04.56.19.75.6.38.84.7,1.63.68,2.57-.03,2.52-.01,5.03-.01,7.55,0,.34-.41,1.7-.48,2.03-.12.51-.44.59-.89.59-3.07,0-6.15,0-9.22,0-.71,0-.86-.15-.87-.83-.01-1.28-.01-2.56,0-3.84,0-.6.18-.77.81-.77,1.61-.01,3.23,0,4.92,0Z"/>
  <path class="cls-1" d="m187.06,57.79c-.29-.47-.38-.94-.38-1.48.02-3.67.01-7.34.01-10.99-.82-.83-1.73-.15-2.59-.14-.17,0-.42.24-.4.54.01.25,0,.49,0,.74v9.9c0,.25.01.5,0,.74-.03.45-.22.67-.65.67-1.04.02-2.08.03-3.11,0-.87-.03-1.21-.4-1.21-1.25,0-7.01,0-14.02,0-21.03,0-.86.11-.97.97-.98,1.49,0,2.97,0,4.56,0-.53,1.83-.21,3.62-.3,5.39,0,.16,0,.32,0,.52h7.1c.53,1.4.66,2.8.64,4.24-.04,2.23-.04,4.45,0,6.68.02,1.01-.35,1.97-.29,2.99.04.68.36,1.3.3,2-.03.37-.14.69-.27,1.01-.14.33-.39.46-.77.45-1.2-.03-2.4,0-3.59,0Z"/>
  <path class="cls-1" d="m338.77,35.02v5.61c-.85.4-1.67.43-2.62.14-.71-.21-1.54-.14-2.32.02-.07.01-.12.11-.18.17-.21-.24-.4-.37-.7-.07-.22.22-.17.44-.17.68,0,3.54,0,7.09,0,10.63,0,.03.04.06.11.15.58-.1,1.24.21,1.82-.25,1.16,0,2.32-.01,3.49,0,.37,0,.55.28.56.77,0,1.6,0,3.21,0,4.92h-1.09c-2.91,0-5.81,0-8.72,0-.6,0-1.22.09-1.7-.41-.23-.24-.7-1.47-.71-1.94,0-1.4.18-2.83-.04-4.2-.32-2-.07-3.98-.23-5.96-.05-.67.31-1.23.27-1.88-.03-.62-.01-1.24,0-1.85.01-1.05-.36-2.05-.27-3.11.08-.95.37-1.82.67-2.7.16-.46.5-.74,1.04-.73.41,0,.83,0,1.25,0h9.54Z"/>
  <path class="cls-1" d="m166.25,52.84c0,.82-.03,1.53,0,2.23.03.67-.21,1.38.3,2.08-.25.17-.52.36-.95.65-3.06,0-6.38-.01-9.7,0-1.06,0-1.89-.42-2.45-1.24-.24-.35-.43-.82-.42-1.3,0-3.75,0-7.5.02-11.25,0-.58.19-1.16.31-1.73.18-.83,1.55-1.8,2.43-1.81,2.66-.02,5.31,0,7.97,0,.44,0,1.74.76,1.98,1.15.32.5.54,1,.52,1.65-.05,2.42-.02,4.85-.02,7.25-.48.22-.9.38-1.41.36-1.2-.04-2.41,0-3.61-.02-.99,0-1.08-.22-.73-1.14.32-.82.52-1.68.76-2.53.05-.18.05-.37.13-.56.28-.74.13-1.04-.59-1.46-.68-.39-1.31-.35-1.75.09-.18.18-.29.35-.29.63.02,2.06,0,4.12.01,6.18,0,.6.18.77.8.77,1.95,0,3.9,0,5.85,0h.82Z"/>
  <path class="cls-1" d="m120.93,50.62c-.2-.55.13-.86.29-1.2.32-.67.67-1.32.65-2.08,0-.16.04-.29.12-.45.35-.74-.01-1.31-.55-1.76-.5-.42-1.03-.19-1.56.03-.35.15-.51.34-.51.71,0,2.02.01,4.04,0,6.06,0,.36.2.62.44.63.49.03.87.32,1.39.3,1.66-.07,3.32-.03,4.98-.02.83,0,.91.09.92.91,0,.95,0,1.9,0,2.85,0,.82-.36,1.19-1.15,1.2-.87,0-1.78.16-2.61-.03-1.35-.33-2.68-.15-4.02-.2-.34-.01-.68-.06-1.05.17-.35.21-.91.19-1.3,0-.24-.12-.45-.19-.68-.16-.75.08-1.32-.24-1.8-.77-.11-.12-.23-.23-.35-.35,0-4.54.06-9.08-.03-13.62-.03-1.57.95-2.18,2.44-2.33,1.19-.12,2.41-.02,3.61-.02,1.29,0,2.58.06,3.86-.02.9-.05,1.53.37,2.12.92.63.59.99,1.3.98,2.2-.02,1.86-.01,3.71,0,5.57,0,.37-.07.69-.25,1.02-.17.32-.39.4-.74.5-1.33.38-2.68.13-4.02.24-.48.04-.73-.52-1.18-.26Z"/>
  <path class="cls-1" d="m233.43,40.46c2.19,0,4.38.01,6.58,0,.59,0,1.18.09,1.78-.21.51-.26,1.04.39,1.62.22.36.43.86.74,1.13,1.26.3.56.51,1.11.5,1.78-.03,3.99-.02,7.98-.02,11.94-.47.47-.9.91-1.35,1.34-.68.65-1.44,1.04-2.44,1.03-2.24-.04-4.48-.02-6.72,0-.49,0-.94-.07-1.46-.36.21-.86-.33-1.7-.26-2.63.07-.9.01-1.81.01-2.72,0-3.01.02-6.01-.01-9.02,0-.93.17-1.79.63-2.61Zm3.37,4.83v1.49c0,1.65,0,3.29,0,4.94,0,.29-.06.61.27.75.35.15.73.36,1.09.34.4-.02.82-.21,1.19-.4.37-.19.19-.59.2-.9.01-1.77,0-3.54,0-5.31,0-.25.02-.5,0-.74-.02-.32-.22-.54-.54-.54-.72,0-1.46-.14-2.2.36Z"/>
  <path class="cls-1" d="m281.68,57.44c-.52.3-.97.37-1.46.37-2.61-.02-5.23-.08-7.84.02-1.24.05-2.39-.99-2.62-2.42-.19-1.12-.23-2.34,0-3.45.33-1.55.31-3.1.14-4.6-.15-1.34-.11-2.66-.18-3.98-.04-.73.12-1.4.65-1.96.6-.64,1.39-.91,2.22-.94,1.74-.06,3.49-.02,5.23-.02.25,0,.5.02.75,0,1.2-.09,1.48,0,2.23.72.03.03.06.06.09.09.35.35.71.7,1.05,1.04,0,2.36,0,4.7,0,7.05,0,.35.19.77-.17,1.03-.38.28-.84.43-1.3.45-.99.04-1.99.01-2.99.01-.41,0-.83.02-1.24,0-.33-.02-.33-.2-.32-.59.01-.43.26-.73.38-1.09.19-.55.45-1.07.42-1.68-.02-.35-.1-.73.09-1.07.17-.3-.13-.53-.13-.83,0-.56-.22-.69-.75-.68-.5.01-.71.21-.71.74,0,1.48,0,2.97-.01,4.45,0,.32.18.74-.09.93-.34.23.36.5-.1.65-.05.02-.05.22-.05.34-.02.62.14.8.77.81,1.62.01,3.24,0,4.86,0,.25,0,.5-.01.75,0,.46.03.64.28.43.77-.1.25-.06.48-.07.71-.01,1.03,0,2.06,0,3.1Z"/>
  <path class="cls-1" d="m201.03,40.46c1.45,0,2.9,0,4.35,0,.32,0,.64-.08.9.24.28.34.54.67.6,1.12.03.24,0,.49,0,.74,0,3.75.02,7.51-.01,11.26,0,1.13.55,2.21.13,3.49-.32.33-.84.52-1.49.49-.91-.04-1.83,0-2.74-.01-.71,0-.86-.15-.87-.84,0-1.98,0-3.96,0-5.94v-5.49c-.26-.11-.54-.22-.81-.36-.68-.35-1.36.08-2.04.03-.15-.01-.41.24-.4.54.01.25,0,.49,0,.74,0,1.98-.02,3.96.01,5.94.02.92-.06,1.82.19,2.76.22.82.14,1.75-.33,2.62-1.23,0-2.51,0-3.79,0-.63,0-.81-.17-.81-.76,0-2.06,0-4.12,0-6.19.41-1.05.4-2.19.21-3.23-.38-2.04-.09-4.07-.21-6.09,0-.04,0-.08,0-.12.02-.82.11-.92.9-.93,1.16,0,2.32,0,3.48,0,.15.33.27.66.45.95.13.2.34.36.49.51.76-.29,1.21-.93,1.78-1.45Z"/>
  <path class="cls-1" d="m209.88,48.99c0-2.06.02-4.12-.01-6.18,0-.51.09-.97.38-1.33.4-.49.85-.97,1.47-1.23.07-.03.17-.07.23-.04,1.05.54,2.17.16,3.26.23,1.07.07,2.16.03,3.23,0,.35,0,.73.14,1.04-.2.1-.11.39-.1.57.03.4.29.83.48,1.09,1.01.44.86.73,1.7.72,2.67-.02,3.46-.02,6.92,0,10.38,0,.92-.3,1.65-.96,2.34-.79.83-1.66,1.16-2.78,1.13-1.53-.04-3.07-.06-4.6.01-.75.04-1.42-.21-2.13-.29-.84-.1-1.49-.99-1.5-1.86,0-2.22,0-4.45,0-6.67Zm4.01,3.6c.55,0,1.08.03,1.61,0,.78-.06,1.11-.44,1.11-1.23,0-1.94,0-3.87,0-5.82-.2-.2-.41-.4-.62-.61-.71,0-1.44-.14-2.09.33v7.33Z"/>
  <path class="cls-1" d="m305.99,52.35c.83,0,1.66.04,2.49-.01.67-.04,1.32-.31,2.02-.24.7.06.85.16.85.86,0,1.32,0,2.64,0,3.96,0,.73-.14.88-.82.88-3.11,0-6.23-.01-9.34.03-.37,0-.59-.21-.89-.29-.34-.09-.3-.52-.45-.75-.44-.69-.36-1.43-.49-2.16-.44-2.31-.34-4.66-.16-6.95.2-2.45.05-4.89.2-7.32.04-.63-.29-1.15-.27-1.75.02-.62,0-1.24,0-1.85,0-.21-.05-.43,0-.62.12-.4.24-.82.45-1.17.24-.39.68-.14,1.03-.18,1.31-.14,2.57.43,3.88.24.31-.04.61.07.93-.17.28-.2.84.29.64.52-.36.42-.21.86-.21,1.28-.01,4.25,0,8.49-.02,12.74,0,.46.06.91-.2,1.4-.25.47,0,1.08.33,1.56Z"/>
  <path class="cls-1" d="m143.56,57.55c0-4.72,0-9.33,0-13.95,0-.6.41-1.13.26-1.75-.1-.42-.18-.82-.68-.94-.1-.02-.1-.21-.27-.14-.98.44-2,.05-3.03.22v-6.42h12.11c.2.23.07.57.08.88.02,1.36-.02,2.72.02,4.08.01.5-.13.93-.35,1.43-.54,0-1.11-.01-1.68,0-.53.01-.71.19-.72.73-.01.82,0,1.65,0,2.47,0,1.32.04,2.64-.01,3.96-.06,1.54.45,3.05.26,4.6-.05.42-.02.83-.19,1.28-.17.45-.15,1.07.09,1.65.2.49.12,1.13.08,1.69-.02.27-.27.47-.61.46-1.16-.01-2.34.1-3.48-.05-.58-.08-1.17-.2-1.87-.2Z"/>
  <path class="cls-1" d="m104.67,52.48c.47.28.94.39,1.49.38,1.45-.03,2.91-.02,4.36,0,.72,0,.87.14.88.82.01.95,0,1.9,0,2.85,0,.86-.33,1.21-1.19,1.28-.17.01-.33,0-.5,0-2.62,0-5.24-.04-7.85.03-.7.02-1.22-.31-1.78-.55-.43-.18-.62-.7-.64-1.19-.03-.53,0-1.07,0-1.61,0-3.96,0-7.92,0-11.88,0-.31-.03-.6.12-.94.31-.67.95-.81,1.48-.9.44-.07.78-.41,1.26-.31.4.08.83.02,1.24.02h5.98c.62.62,1.24,1.23,1.87,1.86,0,2.46,0,4.93,0,7.41,0,.72-.11.83-.82.89-.28.02-.57-.08-.79.22-.05.06-.26.07-.35.02-1.04-.51-2.17-.06-3.22-.29-.22-.52.16-.85.35-1.2.57-1.1.93-2.24.84-3.49-.01-.16,0-.3-.11-.45-.48-.61-1.84-.67-2.39-.13-.25.24-.24.49-.24.77,0,2.14,0,4.29,0,6.42Z"/>
  <path class="cls-1" d="m319.08,35.02c0,.96.13,1.85-.03,2.68-.45,2.4-.15,4.8-.21,7.2-.06,2.39-.01,4.78-.01,7.17,0,.07.04.15.08.28.97,0,1.98.11,2.94-.04.59-.09,1.17-.22,1.77-.2.45.01.67.22.68.64.03,1.04-.07,2.09.24,3.12.11.38.03.82.01,1.23-.02.5-.22.69-.76.69-.87.01-1.74,0-2.62,0-1.79,0-3.57-.04-5.36.01-1.35.04-1.58-.48-2-1.76-.27-.83-.25-1.66-.23-2.5.04-1.87-.37-3.71-.28-5.59.09-1.89.02-3.79.02-5.69s.02-3.79,0-5.69c-.02-1.7,0-1.58,1.64-1.56,1.33,0,2.65,0,4.1,0Z"/>
  <path class="cls-1" d="m284.42,53.3c.58.13,1.12-.18,1.59.25,1.04,0,2.1.23,3.08-.25.21-.31.04-.63.17-.95.4-.99-.1-1.69-1.14-1.73-.79-.02-1.58,0-2.37,0-.95,0-1.55-.57-1.56-1.55-.02-1.48,0-2.97,0-4.45,0-.7,0-1.4,0-2.1,0-.47,0-.93.23-1.39.29-.61.23-.65.94-.65,2.03,0,4.07.01,6.1-.01.55,0,1.1.13,1.66-.21.37-.23,1.03.36,1.03.89.02,1.15,0,2.3,0,3.54-1.27,0-2.51.03-3.74-.02-.43-.02-.78.17-1.13.3-.43.16-.5.87-.2,1.24.51.62,1.25.85,2.04.61.87-.26,1.83-.2,2.45.08.74.33,1.08.87,1.08,1.67,0,2.27.02,4.54-.01,6.8-.02.99-.37,1.85-1.41,2.25-.14.05-.24.19-.42.19-1.08,0-2.16,0-3.24,0-.66-.53-1.49-.34-2.12-.19-.69.17-1.35.16-2.03.18-.86.02-.98-.11-.98-.96,0-1.15,0-2.29,0-3.52Z"/>
  <path class="cls-1" d="m5.6,43.72c-.74-.75-1.55-1.38-1.84-2.43.13-.16.28-.39.63-.33.24.04.5,0,.75,0,11.84,0,23.67,0,35.51,0,1.21,0,2.41.38,3.63.24.8.43,1.67.23,2.51.24,1.95.03,3.91-.06,5.85.03,1.69.08,3.33-.33,5.01-.29.41,0,.81-.25,1.27-.24,1.36.03,2.11.77,2.12,2.15,0,.08-.01.16-.02.24-.2.25-.58-.05-.77.26-.11.18-.35.14-.45.08-.85-.46-1.77-.22-2.64-.22-14.58-.02-29.15-.02-43.73,0-2.62,0-5.26-.25-7.83.27Z"/>
  <path class="cls-1" d="m7.75,21.15c.15,0,.3-.04.39,0,1,.55,2.08.5,3.16.49,2.91,0,5.81.03,8.72-.02,1.27-.02,2.48.38,3.76.28,1.24-.1,2.49-.02,3.73-.02s2.58.1,3.86-.02c4.82-.44,9.65-.17,14.47-.22,4.81-.05,9.63-.02,14.45,0,.65,0,1.26-.21,1.88-.31.71-.12,1.18.15,1.62.47.6.43,1.06,1.04,1.61,1.55.23.22.05.45.17.66-.38.18-.71.09-1.03.09-10.13,0-20.26,0-30.39.02-.94,0-1.81-.38-2.76-.28-.95.09-1.95.2-2.85-.02-1.1-.27-2.19-.21-3.27-.16-.42.02-.77-.65-1.19-.1-.85-.37-1.66.2-2.51.08-.86-.12-1.74-.03-2.61-.03s-1.83-.01-2.74,0c-2.17.04-4.35-.17-6.5.25-.59.12-1.02-.17-1.22-.61-.3-.65-1.06-1.14-.73-2.12Z"/>
  <path class="cls-1" d="m230.21,57.79c-.44.07-.91-.17-1.29.24-.07.08-.35.06-.47-.01-.94-.51-1.94-.15-2.9-.2-.63-.04-.68.04-.7-.43-.02-.29,0-.58,0-.87,0-6.15,0-12.3,0-18.44,0-.5.07-1-.2-1.53-.19-.36-.18-.97.34-1.31.17-.11.3-.23.53-.23,1.37.01,2.74,0,4.11.01.51,0,.72.22.69.75-.02.46.16.95-.21,1.4-.14.17-.02.56-.02.85,0,5.41,0,10.81,0,16.22,0,1.01.44,1.97.25,2.99-.03.19.08.41-.12.56Z"/>
  <path class="cls-1" d="m90.56,36.22c1.35.09,2.67.47,4.04.24.13.39.21.74-.05,1.05-.16.19-.07.39-.1.58-.14.74.29,1.55-.24,2.25.28.19.26.47.25.77.29.21.63.08.95.1.32.02.72.08.96-.07.39-.27.52.19.85.16-.07.55-.05,1.07-.21,1.63-.16.55-.22,1.25.16,1.88.25.42-.12.85-.66.86-.66.02-1.31,0-2.01,0v6.38c.76.2,1.67-.19,2.46.43,0,1.42,0,2.89,0,4.37,0,.51-.21.7-.75.7-1.91,0-3.82,0-5.73,0-.15,0-.35.09-.46-.08-.07-.12-.34-.16-.22-.34.39-.57.16-1.19.16-1.78.02-4.82.02-9.64,0-14.46,0-.63,0-1.24-.19-1.89-.26-.92.11-1.85.8-2.76Z"/>
  <path class="cls-1" d="m128.92,35.32c.14-.14.35-.34.55-.55,1.28,0,2.57,0,3.85,0,.54,0,.78.2.75.7-.05.83.14,1.66-.2,2.51-.21.54-.08,1.22-.03,1.84.05.59-.22,1.2.21,1.77.12.16.03.48.03.72,0,4.61-.01,9.23.02,13.84,0,.58-.31,1.05-.32,1.62h-4.63c-.16-.55.12-1.2-.29-1.72-.06-.08-.06-.3,0-.35.41-.33.23-.76.23-1.15.01-5.52,0-11.04.02-16.56,0-.89-.51-1.71-.19-2.68Z"/>
  <path class="cls-1" d="m172.73,51.98c.2.2.41.41.63.62.65,0,1.32,0,1.98,0,.4,0,.58.23.63.58.03.24-.01.5.01.74.06.63-.18,1.29.23,1.88.08.11.01.32.01.49,0,.94-.39,1.46-1.34,1.49-1.58.05-3.16.08-4.73,0-.93-.05-1.9-1.02-1.9-2.1-.02-2.1,0-4.21,0-6.31s.03-4.21-.01-6.31c-.02-.87.22-1.56.9-2.11.16-.13.3-.29.47-.46h5.88c0,1.36,0,2.71,0,4.06,0,.39-.24.58-.59.61-.33.03-.66,0-1,0-.28,0-.58-.06-.77.24-.04.07-.25.93-.23,1.02.17.88.07,1.54-.12,2.83-.13.89-.02,1.81-.02,2.72Z"/>
  <path class="cls-1" d="m10.67,47.64c1.11,0,2.23-.18,3.24.06.9.21,1.82.31,2.64.14.98-.2,1.96-.31,2.89-.16,2.62.41,5.25.14,7.87.2,2.61.06,5.23.06,7.85,0,1.42-.04,2.85-.45,4.25-.2,2.13.38,4.25.16,6.38.21,2.2.05,4.4.01,6.6.01s4.32.04,6.48-.02c1-.03,1.99-.29,3.01-.24.46.02.69.35.84.62.15.27.19.71-.17.99-.16.13-.27.32-.45.43-.49.3-.96.72-1.61.29-.32-.22-.72-.08-1.08-.08-10.21,0-20.43,0-30.64,0-4.11,0-8.22,0-12.33,0-.67,0-1.33,0-2.03.19-1.3.36-3.16-.68-3.73-1.88-.06-.13,0-.31,0-.55Z"/>
  <path class="cls-1" d="m58.01,16.09c-.23.45-.78.5-1.05.32-.4-.28-.78-.2-1.17-.2-15.52,0-31.05,0-46.57,0-.39,0-.78-.1-1.17.2-.21.16-.65.09-.97.03-.54-.1-.89-.51-.9-.95,0-.57.44-1.19.96-1.26.33-.05.66,0,.99,0,15.03,0,30.05,0,45.08,0,.51,0,1-.02,1.53-.19.71-.23,1.5.02,2.08.6.45.45.96.85,1.18,1.47Z"/>
  <path class="cls-1" d="m50.89,8.77h-1.28c-10.59,0-21.18,0-31.77,0-.37,0-.81.09-1.08-.08-.26-.16-.49.17-.77-.13-.16-.18-.71-.03-1.08-.03-.33,0-.66,0-1,0-.97-.02-1.89.48-2.86.2.32-.51.81-.93,1.22-.93.92,0,1.73-.45,2.71-.57-.79-.77-1.71-.22-2.76-.56,1.21-.08,2-.64,3.06-.64,9.8.06,19.6.04,29.41.02.42,0,.88.17,1.28-.22.23-.22.59.25.82.1.29-.18.56-.09.83-.11.33-.03.67-.05.99,0,.22.04.43.22.44.5.01.21-.04.42.01.62.1.4.21.78.69.94.42.14.76.43,1.12.9Z"/>
  <path class="cls-1" d="m58.34,55.53c-.41.76-1.16,1.01-1.9,1.26-.15.05-.29.06-.43.16-1.17.81-2.5.86-3.88.85-9.88-.03-19.76-.03-29.63,0-.9,0-1.73-.45-2.61-.25-.79-.4-1.01-1.27-1.63-1.79-.2-.16-.17-.45-.01-.66.14-.19.31-.41.52-.06.94-.14,1.82.27,2.76.27,11.21-.01,22.41,0,33.62-.02.43,0,.83,0,1.29-.18.59-.23,1.33-.15,1.91.4Z"/>
  <path class="cls-1" d="m61.22,51.4c.22.6-.01,1.13-.41,1.5-.33.31-.48.76-.92,1-.28.15-.58.26-.79.16-.78-.38-1.6-.16-2.4-.23-.35-.03-.76.16-1.02-.24-.27.38-.48.17-.8.02-.33-.16-.76.27-1.15-.03-.3.24-.56.37-.97.12-.18-.11-.52.18-.84.14-.45-.05-.91.03-1.34-.14-.37.46-.87-.32-1.23.13-.8-.47-1.68-.2-2.52-.23-.46-.01-.96-.21-1.41.21-.23.22-.44-.45-.73-.19-.28.25-.47.29-.7-.01-.02-.02-.07-.03-.11-.03-.28,0-.44.31-.77.27-.2-.02-.28-.47-.58-.11-.3.38-.52-.41-.83-.13-.29.26-.51.26-.87.1-.32-.15-.78.39-1.1-.13-.24.29-.51.35-.85.14-.29-.18-.61.31-.81.09-.33-.35-.55.03-.81.03-.27,0-.48-.37-.81-.03-.22.22-.56-.25-.82-.09-.35.21-.61.16-.86-.12-.25.23-.55.36-.85.14-.33-.24-.58.31-.82.08-.31-.3-.6.09-.79-.01-.47-.24-.97.2-1.28-.01-.43-.3-.9.39-1.26-.15-.02-.03-.51.34-.7.16-.29-.26-.58.09-.67,0-.53-.51-1.19.39-1.68-.18-.64.42-1.36.13-2.04.19-.26.03-.59.15-.81-.13-.17-.22-.32.32-.55-.01-.16-.22-.58-.17-.81-.05-.83.43-1.68.13-2.52.18-.1,0-1.94.05-2.02.1-1,.54-1.76-.07-2.45-.61-.51-.4-.8-1.03-1-1.68-.1-.34.17-.37.32-.48.05-.04.21.07.31.11.63.26,1.27.43,1.96.38.31-.02.67-.12.9.23.03.04.18.04.24,0,1.1-.63,2.18.16,3.29.03,1.15-.13,2.32-.03,3.49-.03h28.17c1.41,0,2.83-.06,4.24.02,1.07.06,2.07-.42,3.14-.28.19.03.27-.31.64-.2Z"/>
  <path class="cls-1" d="m6.43,18.18c17.04,0,33.95,0,50.85-.01.46,0,.91.06,1.41-.19.69-.35,2.1.32,2.52,1.01.15.25.13.53-.12.76-.17.15-.32.29-.51.08-.24-.27-.54-.15-.81-.15-10.96,0-21.93,0-32.89,0-2.15.47-4.33.19-6.5.24-2.16.04-4.32,0-6.48.01-1.1,0-2.18-.51-3.25-.23-1.05.28-2.09.18-3.14.22-.55.02-.87-.25-1.2-.7-.34-.47.29-.61.12-1.03Z"/>
  <path class="cls-1" d="m267.47,49.42c0,2.39,0,4.78,0,7.17,0,.85-.11.95-1,.96-.83,0-1.66.04-2.49-.02-.29-.02-.44.24-.73.17-.92-.21-1.02-.31-1.02-1.28,0-4.7,0-9.4,0-14.1,0-.16,0-.33,0-.49,0-.4.24-.61.59-.62,1.37-.02,2.74-.02,4.11,0,.32,0,.52.22.54.54.02.25,0,.49,0,.74v6.93Z"/>
  <path class="cls-1" d="m7.98,12.16c.07-1.14.75-1.9,1.79-1.89.63,0,1.29-.17,1.9.22.18.11.49.02.74.02,12.21,0,24.42,0,36.63.02.78,0,1.47-.39,2.27-.28.73.1,1.41.2,1.91.8.23.27.52.47.86.6-.12.43-.34.65-.79.6-.16-.02-.33,0-.5,0-14.66,0-29.32,0-43.98,0-.28,0-.57.08-.84-.07Z"/>
  <path class="cls-1" d="m62.32,46.4h-1.36c-16.9,0-33.81,0-50.71,0-.64,0-1.26,0-1.9-.22-.87-.29-.89-.21-.89-1.22.34-.03.68-.16,1.02.11.24.2.55.08.83.08,16.78,0,33.56,0,50.34,0,.35,0,.67,0,1.04-.21.4-.23.89.19,1.32.34.45.16.22.64.31,1.11Z"/>
  <path class="cls-1" d="m43.71,36.76c.27.17.35.48.72.49,1.42.03,2.82.39,4.25.24.25-.03.5-.03.75,0,1.6.18,3.16-.37,4.75-.25.08,0,.2.04.24,0,.86-.71,1.55.03,2.1.41.71.49,1.53.92,1.98,1.74-.08.08-.2.3-.32.3-.83.03-1.65.02-2.48.03-.35-.43-.84-.22-1.27-.24-.66-.03-1.33.02-1.99-.01-3.37-.16-6.73.42-10.1.25-.32-.02-.65.08-.99-.07-.1-.84.44-1.39,1.02-1.77.48-.32.87-.71,1.33-1.12Z"/>
  <path class="cls-1" d="m262.71,35.02c1.31,0,2.75,0,4.19,0,.68,0,.81.16.82.88,0,.82-.04,1.65.02,2.46.03.51-.16.91-.37,1.35-.76.09-1.46-.39-2.24-.25-.62.11-1.29-.15-1.89.24-.14.09-.43.07-.6,0-.16-.07-.4-.39-.37-.42.41-.53-.09-1.02-.04-1.54.08-.87-.14-1.77.49-2.73Z"/>
  <path class="cls-1" d="m24.1,30.3c-1.42-.13-2.97.45-4.57.25-.18-.02-.29.06-.43.17-.24.18-.59.16-.82.06-1.18-.53-2.22-1.24-3.03-2.26-.15-.19-.14-.45.02-.66.17-.23.34-.32.53-.02,1.18-.05,2.31.34,3.5.27,1.57-.09,3.15-.02,4.72-.02.25,0,.53-.07.73.03.19.09.53.32.36.56-.37.51-.07,1.35-1.02,1.64Z"/>
  <path class="cls-1" d="m43.88,36.04c-.18-.95.19-1.74.45-2.55.11-.34.37-.5.75-.46,1.6.2,3.15-.31,4.75-.26,1.35.05,2.86.91,3.44,2.11.08.17.12.37.28.5-.22.27-.53.57-.83.35-.38-.28-.77-.25-1.16-.22-1.43.11-2.82-.38-4.25-.27-.92.07-1.81.42-2.76.28-.27-.04-.39.34-.68.51Z"/>
  <path class="cls-1" d="m27.61,25.45c.09.33-.15.53-.33.6-.65.23-1.27.57-2.01.55-1.78-.03-3.57.04-5.35-.02-1.84-.06-3.67.13-5.49.27-1.19.09-2.23-.36-3.3-.76-.24-.09-.46-.25-.69-.38.19-.15.3-.37.6-.37,1.29.02,2.61-.19,3.84.06,1.11.23,2.22.31,3.26.14,1.97-.33,3.92-.1,5.88-.19.42-.02.84-.04,1.29.19.34.17.93.19,1.4-.13.26-.18.61-.11.91.02Z"/>
  <path class="cls-1" d="m24.16,34.73c-1.5.01-3.35-.88-4.53-2.51.59-.56,1.39-.6,2-.38.74.26,1.44.14,2.15.19.69.05.82.17.85.86.03.6,0,1.19-.47,1.83Z"/>
  <path class="cls-1" d="m49.31,31.76c-1.55.09-3.11.11-4.68-.32,0-.44-.39-.86-.31-1.4.03-.2-.03-.44.2-.53.57-.22,1.1-.63,1.76-.35.32.13.71.21.92.45.62.71,1.51,1.09,2.1,1.82.04.05,0,.16,0,.33Z"/>
  <path class="cls-1" d="m24.06,37.24c-.57-.5-.09-1.1-.12-1.64,0-.1.2-.37.45-.33.26.04.42.23.49.46.12.41-.14.76-.26,1.12-.07.19-.25.43-.56.4Z"/>
  <path class="cls-1" d="m44.1,28.25c0-.34-.03-.7.01-1.06.02-.22.62-.44.84-.35.23.1.51.66.37.83-.3.35-.55.86-1.22.58Z"/>
</svg>