<?xml version="1.0" encoding="UTF-8"?>
<svg id="Capa_1" data-name="Capa 1" xmlns="http://www.w3.org/2000/svg" viewBox="0 0 307.92 75.61">
  <defs>
    <style>
      .cls-1 {
        fill: #706f6f;
      }
    </style>
  </defs>
  <path class="cls-1" d="m285.59,20.6c.74-.33,1.06-.07,1.37.09,2.6,1.31,5.13,2.72,7.41,4.54,4.94,3.93,6.66,11.06,1.21,16.69-3.05,3.16-6.7,5.43-10.6,7.32-11.45,5.53-23.63,8.75-36.04,11.23-4.84.97-9.69,1.89-14.58,2.58-7.1,1.01-14.2,2-21.35,2.68-7.47.71-14.96,1.24-22.44,1.81-16.21,1.23-32.43,1.29-48.67,1.09-7.63-.1-15.25-.64-22.87-1.08-5.34-.31-10.68-.75-16.01-1.18-6.07-.49-12.12-1.29-18.17-2.07-9.43-1.22-18.8-2.77-28.07-4.84-10.14-2.26-20.13-5.06-29.59-9.46-3.7-1.72-7.24-3.7-10.36-6.38-1.66-1.42-3.09-3.05-4.09-4.98-1.94-3.77-1.41-7.41.95-10.81,1.73-2.48,7.48-6.32,10.74-7.22-.47.61-.97.93-1.5,1.2-5.7,2.95-7.16,11.92-1.9,16.17,3.52,2.84,7.46,4.8,11.65,6.33,8.76,3.2,17.84,5.17,27.01,6.81,6.62,1.19,13.27,2.12,19.95,2.9,5.44.64,10.89,1.1,16.34,1.6,10.75.98,21.53,1.38,32.3,1.93,1.57.08,3.16-.03,4.73.05,1.02.05,1.26-.36,1.26-1.31-.03-6.23-.02-12.46-.02-18.69,0-7.56.01-15.12-.01-22.68,0-1.07.15-1.93,1.41-2.07.9-.09,1.58.65,1.72,1.9.07.62.05,1.24.05,1.87,0,13.17,0,26.33,0,39.5,0,1.7,0,1.71,1.73,1.71,9.05.01,18.11.03,27.16.02,2.57,0,2.36.31,2.36-2.31,0-13.29,0-26.58,0-39.87,0-.58.05-1.16.15-1.73.13-.79.75-1.07,1.45-1.12.75-.05,1.27.33,1.51,1.05.29.89.21,1.81.21,2.72,0,13.17,0,26.33,0,39.5,0,1.75,0,1.81,1.81,1.73,7.05-.28,14.09-.68,21.14-.89,6.1-.18,12.18-.75,18.26-1.14,5.91-.38,11.81-1.07,17.7-1.78,7.08-.85,14.15-1.85,21.17-3.14,9.12-1.67,18.13-3.74,26.84-6.96,4.23-1.56,8.23-3.54,11.46-6.84,3.09-3.16,3.23-9.31.29-12.64-1.39-1.57-3.04-2.77-5.1-3.84Z"/>
  <path class="cls-1" d="m158.15,29.92c.44-.48.29-1,.29-1.47.02-2.53-.05-5.07.05-7.6.05-1.38-.37-2.41-1.46-3.23-.3-.23-.87-.44-.67-.92.19-.45.74-.23,1.13-.24,1.74-.02,3.49,0,5.23,0,.25,0,.55-.05.69.18.2.33-.11.57-.32.72-1.69,1.19-1.77,2.93-1.75,4.77.06,6.68.05,13.37.06,20.06,0,.16-.04.32-.34.63-4.34-6.3-8.69-12.6-13.02-18.88-.57.27-.43.65-.43.95-.02,3.94,0,7.89-.05,11.83-.02,1.29.64,2.09,1.6,2.76.27.19.6.42.5.79-.12.46-.54.25-.84.25-1.79,0-3.57,0-5.36,0-.36,0-.81.12-.97-.34-.14-.4.23-.6.49-.78,1.28-.92,1.58-2.16,1.55-3.69-.08-4.86-.08-9.72,0-14.57.03-1.51-.33-2.66-1.54-3.56-.28-.21-.77-.42-.62-.83.17-.5.72-.29,1.1-.28,1.7.05,3.58-.52,5.04.22,1.46.74,2.05,2.63,3.04,4.01,2.19,3.06,4.22,6.25,6.59,9.22Z"/>
  <path class="cls-1" d="m196.87,33.35c0-.87-.03-1.75,0-2.62.03-.84-.17-1.55-.87-2.08-.26-.2-.57-.45-.46-.82.12-.39.53-.35.85-.35,1.37,0,2.74,0,4.11,0,.24,0,.53-.03.64.26.11.28-.09.49-.27.64-1.08.9-1.17,2.12-1.15,3.4.03,1.99-.04,3.99.03,5.98.04,1.13-.41,1.78-1.44,2.18-6.65,2.56-13.67-.37-15.75-7.87-1.43-5.17.27-10.64,4.34-13.77,3.15-2.42,6.6-2.88,10.34-1.51,1.11.41,1.65,1.05,1.48,2.23-.11.75.39,1.83-.39,2.16-.55.24-1.07-.77-1.48-1.29-2.34-2.98-6.77-1.83-8.95.9-3.14,3.93-3.37,11.17-.39,15.22,1.94,2.64,5.27,3.63,7.93,2.39.97-.45,1.52-1.07,1.45-2.2-.06-.95-.01-1.91-.01-2.86,0,0,0,0-.01,0Z"/>
  <path class="cls-1" d="m108.39,40.54c-.54,0-1.08,0-1.62,0-.28,0-.62.13-.75-.24-.09-.26.11-.47.28-.65,2.53-2.58,3.9-5.96,6.04-8.8,1.15-1.52,1.11-2.68.04-4.25-1.61-2.36-2.93-4.91-4.38-7.39-.4-.69-.89-1.3-1.45-1.86-.17-.17-.42-.35-.33-.62.11-.37.47-.27.75-.28,1.08-.02,2.16-.02,3.24-.05.5-.01.83.14.79.69-.07,1.15.5,2.08,1.04,3.01.93,1.62,1.89,3.22,2.82,4.84.39.68.7.7,1.13.03,1.11-1.76,2.23-3.5,3.37-5.23.58-.88.68-1.67-.26-2.38-.21-.16-.54-.34-.38-.7.12-.27.42-.22.66-.22,1.29,0,2.57,0,3.86.01.24,0,.53-.04.65.25.12.28-.11.46-.28.64-2.73,2.86-4.29,6.5-6.52,9.68-.43.61-.39,1.21-.01,1.86,1.79,3.04,3.56,6.09,5.34,9.14.34.58.76,1.09,1.27,1.52.19.16.41.33.34.61-.07.29-.34.35-.59.36-1.12,0-2.24,0-3.36-.02-.37,0-.68-.18-.7-.57-.13-1.97-1.45-3.41-2.3-5.05-.55-1.07-1.2-2.09-1.79-3.14-.35-.62-.7-.84-1.15-.1-1.27,2.05-2.52,4.1-3.8,6.14-.46.73-.14,1.25.39,1.73.21.2.47.4.31.73-.15.32-.48.28-.76.29-.62,0-1.25,0-1.87,0,0,0,0,0,0,0Z"/>
  <path class="cls-1" d="m215.6,33.56c-.17,0-.33-.02-.5,0-1.05.13-2.4-.52-3.09.36-.91,1.14-1.28,2.68-1.57,4.15-.14.7.36,1.15.76,1.63.19.22.39.49.22.78-.15.27-.44.11-.68.11-1.16-.02-2.32-.02-3.48-.02-.25,0-.52.09-.67-.18-.17-.31,0-.58.23-.76,1.2-.93,1.53-2.31,1.98-3.65,2.04-5.97,4.12-11.92,6.2-17.88.22-.64.32-1.61,1.12-1.63.87-.03,1.06.93,1.29,1.62,2.15,6.28,4.39,12.53,6.34,18.88.32,1.05.8,2,1.65,2.73.19.16.4.37.31.63-.12.36-.46.27-.75.25-1.53-.08-3.07-.14-4.6.02-.21.02-.42.08-.55-.14-.12-.21-.06-.46.1-.57,1.68-1.13.89-2.51.42-3.87q-.85-2.46-3.49-2.46c-.42,0-.83,0-1.25,0Zm.37-10.53c-.15-.02-.29-.04-.44-.06-.88,2.62-1.77,5.23-2.64,7.86-.2.61.14.83.71.82,1.37,0,2.74-.01,4.11-.01.79,0,.93-.47.73-1.08-.81-2.52-1.65-5.03-2.48-7.54Z"/>
  <path class="cls-1" d="m92.38,16.27c1.95,0,3.9.01,5.85,0,.92,0,1.4.32,1.31,1.32-.06.74,0,1.49-.03,2.24-.02.63-.44.81-.77.35-1.46-2.11-3.61-1.85-5.72-1.81-3.55.07-3.19-.6-3.23,3.27-.01,1.25.03,2.49,0,3.74-.02.77.24,1.16,1.07,1.15.87,0,1.74.07,2.61.11,1.06.05,1.96-.27,2.61-1.15.14-.19.29-.47.57-.4.27.07.33.36.33.61,0,1.33,0,2.66-.02,3.98,0,.18-.12.43-.27.52-.29.19-.44-.11-.58-.29-1.56-2.1-3.77-1.18-5.76-1.22-.49-.01-.57.53-.57.97,0,2.57.02,5.15,0,7.72,0,.74.33,1.04,1.07,1.03,1.7-.02,3.4-.02,5.11,0,1.17.02,1.71-.88,2.44-1.53.26-.23.47-.72.89-.5.32.16.19.6.19.92-.03,3.49.54,3.2-3.15,3.22-3.24.02-6.48.02-9.71.02-.36,0-.81.11-1.02-.29-.27-.5.21-.75.49-1.01.64-.58.79-1.31.79-2.14,0-5.77-.01-11.54.02-17.31,0-.98-.18-1.79-1-2.4-.25-.18-.62-.4-.43-.8.17-.35.56-.31.89-.31,1.99,0,3.98,0,5.98,0h0Z"/>
  <path class="cls-1" d="m262.69,30.56c-1.41-2.55-3.77-1.94-5.93-1.97-.68,0-.96.39-.97,1.03,0,2.61,0,5.23,0,7.84,0,.7.38.93,1.03.93,1.74,0,3.49.02,5.23,0,1.08,0,1.69-.76,2.3-1.51.21-.26.36-.78.81-.6.4.16.3.64.31,1.01.04,3.64.23,3.19-3.06,3.22-3.36.03-6.72.03-10.08.05-.28,0-.6.16-.77-.19-.15-.32.05-.58.27-.76,1.03-.83,1.08-1.94,1.08-3.14-.03-5.56-.03-11.12,0-16.68,0-.99-.24-1.78-1.01-2.42-.23-.19-.67-.36-.46-.76.17-.32.57-.3.9-.3,2.16-.02,4.32-.04,6.47-.04,1.78,0,3.57.03,5.35.01.95-.01,1.37.41,1.32,1.35-.04.79.01,1.58-.05,2.36-.04.47-.33.93-.76.32-1.37-1.93-3.3-2.02-5.41-1.96-3.49.1-3.49.03-3.48,3.49,0,1.24.02,2.49,0,3.73-.01.78.3,1.16,1.11,1.11,1.2-.08,2.4-.12,3.6-.19.56-.03,1.02-.31,1.44-.66.27-.22.49-.71.91-.48.31.17.18.61.18.93,0,1.36,0,2.71,0,4.07-.11.07-.23.15-.34.22Z"/>
  <path class="cls-1" d="m49.91,33.7c0,1.08.03,2.16,0,3.24-.03,1.04.15,1.98,1,2.69.22.18.47.41.35.73-.14.35-.48.23-.76.22-1.33-.02-2.65-.03-3.98-.06-.29,0-.61.01-.75-.32-.14-.34.09-.56.32-.73.86-.59.98-1.44.98-2.41-.02-5.69-.01-11.37.02-17.06,0-1.04-.08-1.98-1.02-2.64-.19-.14-.41-.34-.34-.62.07-.3.35-.32.6-.32,4.02.03,8.04-.35,12.07-.06,1.04.08,1.39.51,1.28,1.49-.1.86.38,2.14-.21,2.47-.67.38-1.21-.85-1.83-1.35-.6-.48-1.29-.57-1.99-.59-1.49-.04-2.99,0-4.48-.04-.85-.02-1.21.36-1.2,1.19.01,1.95.02,3.9,0,5.85,0,.73.3,1.07,1.04,1.05,1.12-.02,2.24-.03,3.36,0,.9.02,1.46-.49,1.95-1.14.11-.15.33-.32.49-.31.29.02.35.32.35.57,0,1.37.02,2.74-.03,4.11-.01.38-.31.9-.66.28-.89-1.52-2.29-1.41-3.72-1.39-3.07.06-2.8-.45-2.82,2.77,0,.79,0,1.58,0,2.37h-.01Z"/>
  <path class="cls-1" d="m238.36,28.71c0,2.7.02,5.4,0,8.1-.01,1.08.11,2.07,1.01,2.81.22.18.45.42.29.75-.16.33-.5.21-.78.2-1.25-.02-2.49-.03-3.74-.05-.36,0-.81.09-.97-.36-.14-.39.2-.6.46-.8.7-.53.85-1.26.85-2.09-.02-5.77-.03-11.55,0-17.32,0-.97-.27-1.35-1.29-1.5-1.9-.3-3.44.11-4.65,1.65-.18.23-.34.67-.76.46-.35-.17-.27-.57-.3-.9q-.25-3.36,3.15-3.37c3.99,0,7.97,0,11.96.01,1.79,0,2,.21,1.84,1.93-.07.77.34,1.93-.33,2.21-.67.28-1.12-.89-1.72-1.36-.73-.58-3.6-1.02-4.42-.6-.68.35-.61,1.04-.61,1.65-.02,2.87,0,5.73,0,8.6,0,0,0,0,0,0Z"/>
  <path class="cls-1" d="m72.38,40.53c-1.74,0-3.48,0-5.23,0-.28,0-.63.1-.75-.27-.11-.33.12-.56.36-.72.92-.61,1.02-1.5,1.02-2.5-.02-5.64-.02-11.28,0-16.92,0-1.06,0-2.08-1.01-2.77-.19-.13-.37-.37-.27-.64.11-.29.4-.25.64-.26,1.41-.05,2.81-.11,4.22-.14.32,0,.74,0,.87.35.11.31-.25.5-.47.66-.92.7-1.14,1.64-1.13,2.74.03,5.56.04,11.11-.01,16.67-.01,1.25.38,1.77,1.63,1.66.62-.06,1.25-.05,1.86.01,1.57.16,2.86-.24,3.76-1.63.17-.26.42-.63.77-.52.39.13.25.55.24.87,0,.41-.02.83,0,1.24q.08,2.15-2.02,2.16c-1.49,0-2.99,0-4.48,0h0Z"/>
</svg>