<?xml version="1.0" encoding="UTF-8"?>
<svg id="Capa_1" data-name="Capa 1" xmlns="http://www.w3.org/2000/svg" viewBox="0 0 338.17 136.12">
  <defs>
    <style>
      .cls-1 {
        fill: #706f6f;
      }
    </style>
  </defs>
  <path class="cls-1" d="m7.51,49.52c.13-1.17.25-2.34.41-3.51,1.07-7.83,4.07-14.82,9.14-20.92,5.82-7,13.26-11.34,22.07-13.43,4.36-1.03,8.79-1.34,13.25-1.13,4.67.21,9.24,1.03,13.58,2.82,7.61,3.13,13.43,8.27,17.15,15.65,1.76,3.49,2.72,7.22,3.11,11.1.61,6.2.02,12.28-1.87,18.22-1.69,5.31-4.37,10.07-8.01,14.29-3.56,4.12-7.74,7.43-12.63,9.84-4.37,2.16-9,3.44-13.84,4.01-2.66.31-5.33.39-7.99.28-5.91-.24-11.59-1.43-16.89-4.16-6.86-3.54-11.75-8.9-14.75-15.99-1.47-3.47-2.36-7.08-2.65-10.84,0-.12-.05-.25-.08-.37,0-1.96,0-3.92,0-5.88Zm59.83-3.78c.04-1.22-.09-2.88-.48-4.52-1.34-5.73-4.62-9.95-9.96-12.47-4.11-1.94-8.46-2.09-12.85-1.24-5.76,1.11-10.17,4.35-13.43,9.13-4.25,6.22-5.05,13.12-3.38,20.32,1.16,4.99,4.06,8.81,8.64,11.19,4.52,2.36,9.34,2.6,14.21,1.51,5.9-1.31,10.18-4.95,13.42-9.88,2.7-4.11,3.83-8.69,3.82-14.04Z"/>
  <path class="cls-1" d="m164.1,131.53c-.66-.18-1.35-.26-2-.52-1.57-.63-2.71-1.61-2.94-3.39-.27-2.03.75-3.73,2.67-4.47.22-.08.44-.16.66-.24-.02-.06-.02-.1-.04-.12-1.54-1.19-1.61-3.03-.16-4.34.15-.13.3-.26.47-.37.31-.2.29-.32-.03-.53-1.92-1.26-2.71-3.35-2.23-5.81.42-2.16,1.88-3.59,4.17-4.06,1.18-.24,2.39-.26,3.57-.04,1.18.22,2.35.09,3.53.12.78.02,1.56.01,2.34,0,.36,0,.53.14.54.51,0,1.24.07,1.24-1.02,1.29-.45.02-.9.15-1.35.16-.57.01-.52.23-.3.62.69,1.22.86,2.53.57,3.89-.46,2.18-2.25,3.7-4.68,4-.81.1-1.62.13-2.44.03-.99-.13-2.16,1.43-1.8,2.36.25.64.82.8,1.42.83.92.04,1.85.03,2.78.04.91,0,1.82.02,2.71.18,2.14.36,3.44,1.48,3.78,3.24.42,2.16-.4,4.13-2.15,5.25-1.16.74-2.46,1.05-3.79,1.26-.16.02-.32.06-.48.09h-3.81Zm2.88-7.61c-.82,0-1.63-.03-2.45,0-1.68.07-2.81,1.12-2.91,2.66-.1,1.55.75,2.54,2.51,2.84,1.48.25,2.96.19,4.44-.08,1.02-.19,1.97-.54,2.68-1.34.71-.8.85-1.75.54-2.75-.27-.88-1.02-1.1-1.82-1.24-.99-.17-1.99-.07-2.99-.09Zm3.13-10.95c0-1.18-.21-2.3-1.29-2.95-1.43-.86-2.97-.87-4.41-.07-1.32.73-1.53,2.07-1.45,3.41.1,1.81,1.02,2.8,2.74,3.07.68.11,1.37.09,2.06-.06,1.3-.28,2.09-1.08,2.29-2.38.05-.34.05-.69.07-1.03Z"/>
  <path class="cls-1" d="m223.16,131.53c-.7-.16-1.42-.27-2.11-.52-2.31-.87-3.42-2.87-2.81-5.13.34-1.26,1.19-2.09,2.35-2.63.28-.13.57-.22.84-.33.05-.11-.03-.15-.08-.19-1.46-1.18-1.47-3.1-.04-4.31.71-.6.7-.59-.01-1.14-1.23-.95-1.84-2.24-1.92-3.75-.12-2.2.56-4.13,2.65-5.26,1.15-.62,2.42-.86,3.69-.71,2.44.28,4.89.23,7.33.23.42,0,.59.15.58.57-.03,1.08.14,1.17-1.03,1.24-.49.03-.97.15-1.46.17-.44.02-.43.17-.24.5.76,1.3.94,2.69.59,4.15-.51,2.11-2.22,3.53-4.62,3.86-.81.11-1.62.14-2.44.03-.75-.1-1.15.47-1.53.96-.35.44-.49.99-.22,1.53.28.56.83.68,1.39.7,1.07.03,2.14.01,3.21.04.89.02,1.78.03,2.65.24,1.69.41,2.99,1.28,3.35,3.09.39,2-.08,3.76-1.75,5.05-1.23.95-2.69,1.31-4.2,1.53-.16.02-.32.06-.48.09h-3.7Zm2.74-7.61c-.82,0-1.63-.03-2.45,0-1.68.08-2.77,1.15-2.88,2.76-.09,1.42.79,2.42,2.48,2.72,1.46.26,2.93.21,4.38-.05,1.06-.19,2.04-.54,2.78-1.36.73-.81.82-1.76.54-2.75-.26-.92-1.06-1.11-1.87-1.24-.99-.17-1.99-.06-2.99-.08Zm-3.95-10.8c-.01,1.85.85,2.98,2.66,3.31.35.06.72.06,1.08.05,2.1-.02,3.18-.93,3.38-3.01.12-1.27-.02-2.58-1.17-3.38-1.36-.94-2.89-.92-4.35-.25-1.3.6-1.62,1.81-1.61,3.27Z"/>
  <path class="cls-1" d="m307.31,55.13c.17-.07.18-.24.23-.36,3.66-7.94,7.33-15.88,10.98-23.83.24-.52.53-.71,1.11-.71,3.74.03,7.48.01,11.22.01.79,0,.81.03.43.74-5.17,9.81-10.35,19.61-15.53,29.42-2.78,5.28-5.54,10.58-8.34,15.85-1.7,3.2-3.91,5.98-6.97,8-2.13,1.4-4.48,2.1-7.04,2.1-47.2,0-94.39,0-141.59,0-.05,0-.11,0-.16,0-.17-.03-.41.1-.48-.12-.05-.16.18-.25.3-.35,2.67-2.34,4.82-5.09,6.35-8.28.39-.82.86-1.09,1.78-1.09,43.73.02,87.46.02,131.19.02.56,0,1.13.03,1.69-.06,2.33-.36,3.77-1.76,4.54-3.9.7-1.96.81-4,.73-6.06-.2-5.25-1.85-10.18-3.32-15.16-1.98-6.72-3.96-13.43-5.95-20.15q-.28-.95.69-.95c3.76,0,7.52.01,11.28-.01.56,0,.78.17.92.72,1.9,7.85,3.82,15.69,5.74,23.53.05.22.05.47.22.65Z"/>
  <path class="cls-1" d="m154.17,55.27c.97-2.09,1.88-4.05,2.78-6.01,2.22-4.81,4.43-9.63,6.65-14.44.61-1.34,1.24-2.66,1.84-4.01.19-.43.44-.59.91-.59,3.83.02,7.66,0,11.5,0,.64,0,.67.04.38.58-5.22,9.89-10.44,19.77-15.65,29.66-2.75,5.22-5.48,10.45-8.24,15.66-1.82,3.44-4.17,6.42-7.58,8.44-1.96,1.17-4.09,1.76-6.38,1.76-25.01,0-50.01,0-75.02,0-.19,0-.39.07-.63-.12.73-.39,1.43-.75,2.12-1.12,3.93-2.12,7.44-4.79,10.53-8.02.4-.42.81-.57,1.38-.57,19.65.01,39.3,0,58.95,0,.53,0,1.06,0,1.58-.07,2.28-.31,3.72-1.66,4.53-3.76.49-1.27.71-2.59.76-3.94.17-4.16-.59-8.2-1.75-12.17-2.36-8.01-4.72-16.01-7.08-24.01-.18-.63-.36-1.25-.55-1.88-.09-.3,0-.45.32-.45.05,0,.11,0,.16,0,3.92,0,7.85,0,11.77,0,.45,0,.64.17.74.6,1.41,5.8,2.82,11.6,4.24,17.4.53,2.17,1.05,4.34,1.58,6.5.03.14.08.27.17.54Z"/>
  <path class="cls-1" d="m115.57,64.3c-.81.61-1.47,1.32-2.22,1.94-2.88,2.41-6.15,3.86-9.93,4.13-4.12.29-7.77-.78-10.81-3.63-2.43-2.27-4.05-5.05-4.77-8.28-1.39-6.18-.9-12.22,1.99-17.91,2.22-4.37,5.49-7.78,10.13-9.61,4.72-1.85,9.49-2.03,14.16.24,2.19,1.06,3.95,2.69,5.51,4.54.07.08.14.16.2.23.15-.04.13-.14.13-.22-.05-2.92.48-5.78.93-8.64.82-5.19,1.63-10.39,2.46-15.58.25-1.58-.02-1.34,1.53-1.34,3.76-.01,7.52,0,11.28,0,.74,0,.75,0,.64.72-.79,5.01-1.58,10.03-2.37,15.04-.96,6.11-1.91,12.22-2.88,18.32-.78,4.96-1.57,9.92-2.35,14.88-.48,3.04-.97,6.09-1.43,9.14-.07.44-.25.56-.67.56-3.87-.01-7.74-.02-11.6,0-.52,0-.62-.18-.54-.64.23-1.3.43-2.61.64-3.91Zm-5.95-5.4c2.33,0,4.61-1.08,6.37-3.26,2.09-2.59,2.78-5.59,2.42-8.83-.34-3.01-1.98-5.15-4.84-6.15-3.72-1.29-7.96-.34-10.52,3.41-1.55,2.27-2.03,4.81-1.91,7.51.06,1.4.43,2.73,1.21,3.91,1.6,2.42,3.93,3.44,7.28,3.41Z"/>
  <path class="cls-1" d="m272.92,53.01c-4.52,0-9.04,0-13.57,0-.75,0-.77,0-.74.76.05,1.38.18,2.76.81,4.02,1,2,2.71,2.95,4.85,3.25,3.79.54,6.94-.85,9.77-3.21.31-.26.62-.51.91-.78.23-.22.4-.23.64,0,2.23,2.26,4.47,4.51,6.72,6.76.34.34.13.52-.11.74-2.32,2.14-5.01,3.64-8.01,4.6-3.06.98-6.21,1.34-9.4,1.26-3.14-.08-6.22-.55-9.11-1.86-4.87-2.22-7.94-5.97-9.17-11.14-1.21-5.06-1.04-10.13.93-14.97,2.86-7.01,8.15-11.19,15.56-12.64,4.05-.79,8.12-.73,12.05.62,6.89,2.36,10.87,7.28,12.21,14.39.47,2.5.41,5.01.11,7.53-.07.55-.32.67-.82.67-4.54-.01-9.08,0-13.62,0Zm-5.69-7.87c2.34,0,4.68-.02,7.02.01.51,0,.61-.16.55-.63-.21-1.59-.75-3.05-1.94-4.15-2.32-2.14-5.05-2.33-7.87-1.31-2.63.95-4.16,3.04-5.22,5.53-.19.46-.07.55.39.55,2.36-.01,4.72,0,7.07,0Z"/>
  <path class="cls-1" d="m190.43,70.34c-5.76,0-10.95-1.45-15.76-4.31-.45-.27-.55-.47-.3-.97,1.33-2.64,2.61-5.31,3.91-7.96.34-.7.34-.69,1.03-.28,2.17,1.3,4.37,2.54,6.79,3.31,1.82.58,3.68.85,5.58.46.93-.19,1.74-.63,2.29-1.45.61-.92.57-1.97-.11-2.83-.64-.8-1.49-1.32-2.37-1.8-1.48-.81-3.07-1.4-4.62-2.06-2.22-.94-4.35-2.02-6.1-3.72-2.15-2.08-2.83-4.68-2.56-7.56.5-5.3,3.79-8.42,8.39-10.38,3.13-1.33,6.45-1.6,9.83-1.35,3.89.29,7.5,1.45,10.86,3.42.14.08.27.18.42.25.38.18.4.43.23.79-1.05,2.25-2.08,4.52-3.12,6.77-.14.31-.3.62-.42.94-.15.38-.34.39-.66.17-1.25-.87-2.55-1.67-3.97-2.26-1.98-.83-4.02-1.25-6.16-.87-.71.13-1.34.44-1.9.91-1.06.89-1.12,2.21-.13,3.17.94.91,2.12,1.39,3.31,1.84,2.53.96,5.01,2.04,7.3,3.5,2.08,1.33,3.89,2.93,4.62,5.38,1.25,4.2.59,8.11-2.29,11.48-2.59,3.03-6.06,4.45-9.92,5.07-1.43.23-2.88.36-4.18.33Z"/>
  <path class="cls-1" d="m225.15,70.34c-5.62,0-10.83-1.46-15.64-4.35-.42-.25-.49-.45-.27-.9,1.34-2.68,2.65-5.37,3.98-8.05.31-.62.31-.62.91-.26,2.2,1.31,4.43,2.58,6.89,3.36,1.79.57,3.61.81,5.48.47.77-.14,1.44-.49,2-1.04,1.03-1,1.06-2.39.09-3.45-.78-.84-1.76-1.4-2.76-1.91-1.3-.66-2.66-1.17-4-1.73-1.99-.82-3.89-1.8-5.56-3.18-1.89-1.56-2.95-3.55-3.16-5.99-.45-5.36,2.09-9.06,6.55-11.65,2.38-1.38,5-2,7.73-2.22,5.37-.42,10.35.77,14.96,3.52.83.49.71.4.36,1.16-1.11,2.44-2.23,4.88-3.36,7.32-.29.62-.29.61-.84.24-1.98-1.34-4.05-2.5-6.43-2.97-1.2-.23-2.41-.31-3.62-.06-.88.18-1.64.58-2.22,1.29-.69.85-.64,1.88.11,2.66.83.86,1.88,1.35,2.97,1.77,2.55.97,5.05,2.03,7.39,3.46.95.58,1.84,1.23,2.65,1.99,1.94,1.84,2.82,4.12,2.9,6.76.1,3.6-1.02,6.72-3.66,9.22-2.38,2.26-5.28,3.49-8.47,4.08-1.64.31-3.31.46-4.98.44Z"/>
  <path class="cls-1" d="m118.9,118.04c0,1.85-.01,3.7,0,5.55,0,.49-.14.67-.65.67-1.27,0-1.26.01-1.56-1.24-.08-.32.01-.82-.31-.9-.26-.07-.49.38-.69.62-1.85,2.17-5.69,2.17-7.58,1.24-1.66-.82-2.35-2.24-2.43-4.02-.08-1.86.64-3.32,2.28-4.27,1.34-.77,2.82-1.02,4.32-1.18,1.1-.11,2.21-.08,3.32-.13.72-.03.76-.09.76-.81,0-.38.01-.77-.04-1.14-.31-2.1-1.49-2.89-3.87-2.73-1.26.08-2.46.47-3.6,1.01-.46.22-.66.11-.78-.34-.04-.14-.1-.27-.16-.41q-.43-1.07.67-1.52c1.94-.79,3.94-1.11,6.02-.81,2.83.41,4.24,2.02,4.29,4.91.03,1.83,0,3.66,0,5.5h0Zm-7.36,4.33c1.63,0,3.04-.47,4.01-1.88.83-1.21.8-2.6.78-3.99,0-.28-.2-.31-.42-.29-1.16.07-2.32.11-3.47.22-.87.08-1.73.25-2.52.65-1.06.54-1.53,1.42-1.52,2.61.01,1.02.32,1.85,1.28,2.34.59.3,1.21.36,1.85.34Z"/>
  <path class="cls-1" d="m72.22,115.72c.06-1.72.34-3.6,1.48-5.26,1.24-1.81,2.99-2.7,5.13-2.9.86-.08,1.74-.08,2.61.08,2.32.42,4.04,1.7,4.98,3.82,1.4,3.13,1.37,6.33-.13,9.42-1.05,2.16-2.92,3.25-5.26,3.59-1.55.22-3.05.07-4.47-.58-2.39-1.09-3.58-3.08-4.1-5.56-.16-.78-.23-1.58-.23-2.61Zm12.44.43c0-.83-.01-1.53-.14-2.24-.48-2.58-1.97-4.32-5.04-4.18-2.1.1-3.53,1.1-4.14,3.15-.6,2.03-.6,4.09-.03,6.12.52,1.87,1.71,3.06,3.68,3.31,2.4.3,4.47-.58,5.28-3.21.31-1,.42-2.02.38-2.94Z"/>
  <path class="cls-1" d="m200.8,115.94c-.03-1.85.27-3.62,1.26-5.21,1.25-1.99,3.09-3.01,5.41-3.18.96-.07,1.92-.08,2.87.16,2.51.64,4.17,2.23,4.98,4.65.81,2.41.81,4.87.03,7.28-1.01,3.11-3.53,4.89-6.9,4.91-2.59.01-4.76-.89-6.24-3.12-.91-1.37-1.3-2.9-1.41-4.52-.02-.33,0-.65,0-.98Zm2.65.22c-.03.47.05,1.1.12,1.73.31,2.51,1.68,4.09,3.95,4.41,2.53.35,4.54-.67,5.29-3.26.6-2.07.6-4.16-.06-6.22-.51-1.6-1.57-2.67-3.28-3-.59-.11-1.2-.1-1.79-.06-1.57.11-2.76.83-3.47,2.26-.62,1.25-.76,2.6-.76,4.14Z"/>
  <path class="cls-1" d="m56.99,109.97c1-1.38,2.34-2.14,3.97-2.37,1.3-.18,2.61-.15,3.88.27,1.99.66,3.18,2.33,3.28,4.61.17,3.7.04,7.4.08,11.1,0,.48-.15.71-.66.67-.4-.03-.8,0-1.2,0-.76,0-.77,0-.77-.75,0-3.27,0-6.53,0-9.8,0-.45-.02-.9-.11-1.35-.32-1.61-1.33-2.5-2.97-2.58-.63-.03-1.27-.06-1.9.06-2.07.39-3.15,1.61-3.47,3.84-.11.76-.12,1.52-.12,2.28,0,2.54-.01,5.08,0,7.62,0,.51-.14.74-.68.7-.45-.04-.91-.03-1.36,0-.46.03-.63-.18-.59-.61,0-.05,0-.11,0-.16,0-4.95,0-9.91,0-14.86,0-.83.02-.85.86-.84,1.52.01,1.22-.17,1.49,1.21.06.31.06.64.26.98Z"/>
  <path class="cls-1" d="m38.23,109.98c.99-1.37,2.3-2.13,3.89-2.37,1.36-.21,2.72-.17,4.04.28,1.96.67,3.17,2.35,3.21,4.61.05,3.74.02,7.48.03,11.22,0,.41-.18.54-.56.53-.45-.02-.91-.03-1.36,0-.51.04-.65-.18-.65-.67.01-3.3,0-6.61,0-9.91,0-.57-.05-1.12-.2-1.67-.32-1.21-1.09-1.96-2.32-2.17-1.14-.19-2.28-.18-3.39.22-1.69.61-2.3,1.99-2.56,3.62-.11.67-.12,1.34-.12,2.01,0,2.6,0,5.19,0,7.79,0,.78,0,.78-.8.78-.45,0-.91,0-1.36,0-.32,0-.47-.14-.47-.46,0-.13,0-.25,0-.38,0-4.94,0-9.87,0-14.81,0-.82,0-.83.81-.82,1.58.01,1.25-.17,1.56,1.28.06.28.04.58.24.93Z"/>
  <path class="cls-1" d="m144.99,109.98c.46-.67,1.01-1.22,1.71-1.58,2.32-1.21,4.68-1.22,7.02-.12,1.45.69,2.07,2.02,2.32,3.54.08.5.13,1,.13,1.52,0,3.39,0,6.79,0,10.18,0,.72-.01.73-.72.74-.42,0-.84-.02-1.25,0-.46.03-.59-.17-.59-.61.02-1.63,0-3.27,0-4.9,0-1.62,0-3.23,0-4.85,0-.51-.04-1.02-.12-1.52-.25-1.57-1.35-2.54-2.94-2.62-.91-.04-1.81-.05-2.7.24-1.17.38-1.93,1.17-2.37,2.31-.47,1.25-.48,2.56-.5,3.86-.04,2.45-.01,4.9-.01,7.35,0,.72-.01.72-.73.73-.45,0-.91,0-1.36,0-.32,0-.47-.14-.46-.46,0-.09,0-.18,0-.27,0-5.01,0-10.02,0-15.03,0-.68.03-.72.7-.71,1.66.02,1.36-.21,1.66,1.35.05.26.02.54.24.85Z"/>
  <path class="cls-1" d="m249.72,107.52c1.62-.04,3.17.3,4.68.86.42.15.49.36.3.73-.26.48-.29,1.17-.74,1.42-.45.25-.98-.23-1.47-.37-1.38-.38-2.76-.62-4.19-.4-.43.07-.86.17-1.25.37-1.21.62-1.4,2.08-.39,2.99.56.51,1.26.78,1.94,1.08,1.47.63,3,1.09,4.4,1.89,1.67.95,2.4,2.36,2.2,4.25-.19,1.81-1.24,3.01-2.91,3.6-2.7.95-5.42.8-8.1-.14-.44-.16-.63-.42-.59-.9.03-.36,0-.72,0-1.09,0-.67.02-.69.62-.43,1.71.73,3.49,1.1,5.36.97.66-.05,1.3-.17,1.89-.45,1.55-.74,1.73-2.62.34-3.63-.87-.64-1.88-1.02-2.87-1.42-1.1-.44-2.21-.83-3.23-1.43-2.14-1.25-2.84-3.68-1.6-5.63.83-1.31,2.15-1.82,3.6-2.13.66-.14,1.34-.12,2-.14Z"/>
  <path class="cls-1" d="m297.28,107.53c1.69-.05,3.25.3,4.78.87.39.15.46.33.27.69-.18.35-.35.72-.48,1.1-.14.38-.34.5-.74.33-1.1-.45-2.24-.72-3.43-.83-.86-.08-1.71,0-2.53.25-.73.21-1.32.63-1.47,1.44-.16.89.21,1.55.96,2.02,1.07.67,2.26,1.06,3.43,1.52,1.05.41,2.07.87,3.03,1.47,2.43,1.51,2.22,5.42.03,6.91-.89.61-1.88.95-2.93,1.1-2.11.31-4.19.18-6.23-.53-.56-.19-.85-.48-.77-1.11.05-.34.02-.69,0-1.03-.02-.45.09-.59.56-.38,1.06.48,2.18.83,3.34.95,1.3.14,2.61.18,3.86-.34.81-.33,1.3-.93,1.38-1.8.08-.81-.29-1.44-.94-1.91-.86-.62-1.85-1-2.83-1.39-1.08-.43-2.17-.82-3.19-1.4-1.9-1.08-2.64-2.77-2.08-4.76.34-1.23,1.21-1.99,2.33-2.51,1.16-.54,2.4-.7,3.62-.66Z"/>
  <path class="cls-1" d="m96.71,121.67c.08-.23.15-.46.23-.7,1.4-4.29,3.03-8.51,4.54-12.76.12-.33.32-.45.65-.44.56.01,1.13.02,1.69,0,.49-.02.54.16.38.58-1.34,3.51-2.67,7.02-4,10.53-.6,1.59-1.22,3.19-1.8,4.79-.15.41-.36.62-.83.59-.61-.04-1.23-.02-1.85,0-.36.01-.56-.12-.69-.47-1.95-5.16-3.9-10.31-5.87-15.47-.17-.43-.03-.56.39-.55.56.01,1.13.02,1.69,0,.37-.01.55.15.67.49,1.54,4.42,3.3,8.76,4.66,13.24.02.07.02.15.16.17Z"/>
  <path class="cls-1" d="m186.19,113.27c0-3.39,0-6.79,0-10.18,0-.75.01-.76.76-.76.38,0,.76,0,1.14,0,.72,0,.74.02.75.72,0,.98,0,1.96,0,2.94,0,5.03,0,10.05,0,15.08,0,.75,0,.76.75.76,2.71,0,5.41,0,8.12,0,.71,0,.73.02.73.73q0,1.69-1.68,1.69c-3.25,0-6.5,0-9.75,0q-.82,0-.82-.8c0-3.39,0-6.79,0-10.18Z"/>
  <path class="cls-1" d="m284.42,107.54c1.28-.03,2.53.18,3.74.6.42.15.53.36.35.77-.17.38-.3.78-.43,1.18-.11.35-.29.44-.65.32-.79-.28-1.6-.46-2.43-.56-2.79-.32-4.65.95-5.29,3.68-.44,1.87-.43,3.75.14,5.59.65,2.1,2.1,3.12,4.3,3.14,1.29.01,2.53-.23,3.72-.69.45-.17.6-.07.57.4-.02.22,0,.44,0,.65,0,1.13,0,1.15-1.06,1.47-1.73.53-3.5.63-5.27.21-2.27-.53-3.87-1.91-4.67-4.09-1.01-2.74-.99-5.53,0-8.26,1-2.75,3.33-4.34,6.26-4.42.24,0,.47,0,.71,0Z"/>
  <path class="cls-1" d="m261.96,115.16c0,1.58-.04,3.16,0,4.74.05,1.57,1.02,2.46,2.58,2.48.57,0,1.13-.03,1.68-.16.43-.11.57.05.54.45,0,.09,0,.18,0,.27,0,1.26,0,1.26-1.22,1.48-.88.16-1.76.18-2.65.03-1.98-.34-3.23-1.67-3.47-3.72-.07-.6-.11-1.19-.1-1.79,0-2.79-.01-5.59.01-8.38,0-.55-.17-.76-.72-.71-.31.03-.62.02-.93,0-.25-.01-.63.1-.65-.3-.02-.41-.25-.93.35-1.18.52-.22,1.03-.46,1.55-.67.3-.12.46-.31.54-.62.25-.87.51-1.74.78-2.61.15-.49.45-.58,1.26-.49.5.06.42.42.42.73,0,.8.03,1.6,0,2.4-.02.54.19.69.7.68,1.13-.03,2.25,0,3.38-.02.5-.01.67.18.65.67-.05,1.62.23,1.4-1.42,1.42-.89,0-1.78.02-2.67,0-.47-.01-.64.15-.64.63.02,1.56,0,3.12,0,4.68,0,0,0,0,.01,0Z"/>
  <path class="cls-1" d="m124.08,115.3c0-1.62-.01-3.23,0-4.85,0-.45-.14-.63-.59-.6-.38.03-.76.01-1.14,0-.27,0-.61.05-.62-.35-.02-.39-.2-.86.33-1.1.51-.23,1.02-.48,1.54-.68.34-.13.52-.33.62-.68.24-.87.51-1.74.79-2.61.13-.42,1.22-.66,1.53-.35.13.13.1.31.1.46,0,.87.03,1.74,0,2.61-.02.49.17.63.64.62,1.18-.02,2.36,0,3.54-.01.44,0,.62.14.62.6-.03,1.71.19,1.47-1.47,1.49-.93,0-1.85.01-2.78,0-.4,0-.54.15-.54.55.01,3.03,0,6.06.01,9.09,0,.62.12,1.23.45,1.78.4.67,1,1.04,1.78,1.09.73.05,1.45,0,2.16-.17.33-.08.46.04.49.37.14,1.5-.02,1.7-1.51,1.9-1.11.15-2.21.14-3.28-.26-1.66-.61-2.6-2.07-2.65-4.12-.02-.8,0-1.6,0-2.4,0-.8,0-1.6,0-2.4Z"/>
  <path class="cls-1" d="m27.53,113.28c0-3.41,0-6.82,0-10.23,0-.71.01-.72.74-.72.44,0,.87.02,1.31,0,.46-.02.63.19.6.62,0,.09,0,.18,0,.27,0,6.73,0,13.46,0,20.18q0,.85-.83.85c-.38,0-.76-.03-1.14,0-.53.05-.68-.18-.68-.69.02-3.43,0-6.86,0-10.28Z"/>
  <path class="cls-1" d="m134.66,116.01c0-2.47,0-4.93,0-7.4q0-.83.86-.83c.4,0,.8.02,1.2,0,.43-.02.6.18.57.59,0,.09,0,.18,0,.27,0,4.93,0,9.86,0,14.8,0,.82,0,.82-.81.82-.4,0-.8-.02-1.2,0-.48.03-.63-.17-.63-.63.01-2.54,0-5.08,0-7.62Z"/>
  <path class="cls-1" d="m272.54,116.02c0,2.5,0,5,0,7.5,0,.71-.02.73-.74.73-.45,0-.91-.01-1.36,0-.37.01-.53-.16-.53-.52,0-.13,0-.25,0-.38,0-4.89,0-9.79,0-14.68q0-.89.92-.89c.36,0,.73.02,1.09,0,.47-.03.63.16.63.63-.02,2.54,0,5.07,0,7.61Z"/>
  <path class="cls-1" d="m239.42,116c0,2.52-.01,5.04,0,7.56,0,.51-.15.73-.68.69-.41-.03-.84-.03-1.25,0-.51.04-.65-.19-.65-.67.02-2.12,0-4.24,0-6.37,0-2.92,0-5.84,0-8.76,0-.51.15-.74.68-.69.36.03.73,0,1.09,0,.79,0,.8,0,.8.77,0,2.48,0,4.97,0,7.45Z"/>
  <path class="cls-1" d="m323.73,81.86c-.36.94-.72,1.88-1.08,2.82-.3.8-.63,1.59-.9,2.39-.15.45-.46.48-.85.48-.39,0-.59-.13-.72-.5-.59-1.68-1.2-3.34-1.81-5.02-.04-.1-.08-.19-.17-.43.14,1.85.06,3.55.07,5.25,0,.67-.03.7-.71.7-.68,0-.71-.03-.71-.7,0-2.18,0-4.35,0-6.53,0-.48.14-.68.65-.67,1.81.07,1.35-.31,1.98,1.4.53,1.44,1.02,2.9,1.58,4.51.34-.92.63-1.7.91-2.47.36-.99.72-1.97,1.07-2.97.11-.32.28-.48.63-.46.36.02.73.02,1.09,0,.38-.02.51.16.51.52,0,2.28-.01,4.57,0,6.85,0,.58-.38.51-.74.51-.36,0-.74.07-.74-.51.02-1.45,0-2.9.01-4.35,0-.27,0-.53,0-.8-.03,0-.05-.01-.08-.02Z"/>
  <path class="cls-1" d="m312.58,84.16c0-.91-.01-1.81,0-2.72,0-.39-.12-.57-.53-.54-.42.02-.84-.01-1.25,0-.49.02-.5-.28-.5-.64,0-.33.01-.61.47-.61,1.67.01,3.34.01,5.01,0,.47,0,.47.29.46.61,0,.32.03.64-.45.63-.44,0-.87.02-1.31,0-.41-.02-.54.15-.54.54.01,1.8,0,3.59,0,5.39,0,.23.12.56-.2.67-.33.11-.69.11-1.02-.02-.2-.08-.16-.31-.16-.48,0-.94,0-1.89,0-2.83Z"/>
  <path class="cls-1" d="m134.45,103.44c0-1.04.55-1.68,1.49-1.68.96,0,1.54.6,1.57,1.62.02,1.02-.61,1.73-1.54,1.73-.93,0-1.51-.64-1.52-1.67Z"/>
  <path class="cls-1" d="m238.16,101.76c.95,0,1.52.61,1.53,1.65.01,1.04-.6,1.7-1.55,1.7-.92,0-1.49-.66-1.49-1.69,0-1.04.57-1.66,1.51-1.66Z"/>
  <path class="cls-1" d="m269.76,103.44c0-1.11.49-1.67,1.47-1.68.95,0,1.52.61,1.52,1.66,0,1.04-.57,1.69-1.5,1.69-.96,0-1.49-.6-1.5-1.67Z"/>
</svg>