<?xml version="1.0" encoding="UTF-8"?>
<svg id="Capa_1" data-name="Capa 1" xmlns="http://www.w3.org/2000/svg" viewBox="0 0 126.37 165.31">
  <defs>
    <style>
      .cls-1 {
        fill: #706f6f;
      }
    </style>
  </defs>
  <path class="cls-1" d="m121.17,73.71v47.03c-.43.02-.86.07-1.29.07-11.55,0-23.11,0-34.66,0-.61,0-1.22.01-1.83.05-1.17.07-1.45-.11-1.38-1.31.13-2.09-.04-4.17-.03-6.25.02-13.7,0-27.4,0-41.09,0-.9.02-1.82-.15-2.69-1.95-9.74-9.47-16.64-19.54-16.49-10.25.15-19,8.75-19.03,18.99-.03,9.38,0,18.77,0,28.15,0,6.51.01,13.01.02,19.52,0,.78,0,1.39-1.1,1.38-11.55-.04-23.11-.05-34.66-.06-.79,0-1.58,0-2.37,0-.56,0-.85-.27-.85-.87-.01-1.72-.08-3.45-.08-5.17,0-36.35,0-72.69,0-109.04,0-.43,0-.86.02-1.29.02-.79.37-1.12,1.21-1.12,12.06.04,24.11.05,36.17.07,1.43,0,1.59.19,1.6,1.61.15,12.62-.24,25.23-.38,37.85-.01.86-.1,1.72-.14,2.58-.02.45-.21,1.01.26,1.3.55.34.94-.18,1.29-.5,2.36-2.06,4.85-3.88,7.62-5.4,10.66-5.85,21.98-7.66,33.73-4.95,12.97,2.99,23.11,10.28,29.57,22.17,2.69,4.95,4.84,10.12,5.23,15.85.03.38.07.77.39,1.12.19-.56.06-1.1.39-1.53Z"/>
  <path class="cls-1" d="m121.17,54.73c-.72-.37-1.2-.96-1.67-1.62-5.69-8.08-12.6-14.8-21.56-19.18-4.5-2.2-9.25-3.7-14.16-4.63-1.13-.21-1.48-.66-1.47-1.85.04-4.92-.07-9.84-.08-14.76,0-2.73.08-5.46.09-8.19,0-.66.26-.93.88-.93.47,0,.93,0,1.4,0,11.41,0,22.81.01,34.22.02.79,0,1.58.02,2.36.03v51.13Z"/>
  <path class="cls-1" d="m4.25,161.3c0-2.65-.01-5.3-.01-7.95,0-.9,0-1.8.03-2.69.02-.68.33-1.02,1.06-1.06,1.36-.09,2.39.14,3.26,1.46,1.65,2.52,3.57,4.85,5.34,7.29.56.77.95.82,1.53.04,1.89-2.57,3.81-5.13,5.73-7.68.77-1.02,2.15-1.43,3.33-1.06.58.18.62.64.62,1.12,0,3.02.1,6.03-.11,9.05-.03.5-.11,1,.1,1.49h-1.51c-.11-2.22-.27-4.43-.19-6.66.02-.57.08-1.14.08-1.72,0-.25-.05-.53-.33-.62-.32-.11-.44.18-.57.38-1.77,2.74-3.88,5.23-5.83,7.84-.18.24-.33.47-.27.78h-3.66c.06-.31-.08-.54-.27-.78-1.96-2.43-3.82-4.94-5.63-7.49-.2-.28-.39-.7-.81-.6-.53.13-.38.64-.36,1,.16,2.62.08,5.24-.04,7.86h-1.51Z"/>
  <path class="cls-1" d="m31.81,161.3c.19-.09.39-.18.65-.3-.71-.39-1.41-.72-2.05-1.13-3.42-2.2-3.52-6.33-.22-8.67,1.31-.93,2.79-1.47,4.4-1.59,4.01-.29,8.03-.16,12.05-.19.11,0,.22,0,.32.01.46.06,1.06.06,1.09.65.04.72-.63.7-1.1.7-3.34,0-6.67,0-10.01-.05-1.65-.02-3.12.44-4.4,1.45-.42.33-.77.75-1.11,1.17-.25.3-.52.65-.33,1.07.2.45.65.38,1.04.38,2.01,0,4.02,0,6.03-.01,2.73,0,5.45,0,8.18,0,.36,0,.72.01,1.07.05.35.03.63.2.67.58.04.41-.16.72-.56.8-.42.09-.85.14-1.28.14-4.8-.05-9.61.16-14.41-.14-.88-.05-1.11.31-.65,1.12,1.09,1.92,2.83,2.91,4.98,2.84,2.9-.1,5.81-.09,8.71-.17,1.39-.04,2.63.09,3.53,1.3h-16.58Z"/>
  <path class="cls-1" d="m121.17,145.77c-.86-.25-1.75-.1-2.63-.14-1.47-.07-2.94-.02-4.41-.02-4.68,0-7.9-2.78-8.45-7.46-.26-2.21-.17-4.44.54-6.61,1.04-3.15,3.35-5.04,6.65-5.21,2.18-.11,4.37-.03,6.56-.02.78,0,1.34.28,1.3,1.19-.04.97-.71.88-1.39.86-1.83-.03-3.65-.02-5.48.15-2.55.24-4.35,1.74-4.89,4.26-.39,1.81-.42,3.65-.16,5.47.54,3.76,2.96,5.66,7.01,5.62.82,0,1.65-.01,2.47-.06,1.03-.06,2,.05,2.86.66v1.29Z"/>
  <path class="cls-1" d="m104.8,161.3c.19-.1.38-.2.68-.36-.97-.38-1.87-.77-2.65-1.36-2.92-2.2-2.92-6.04,0-8.23,1.48-1.11,3.15-1.69,4.99-1.74,1.65-.04,3.29,0,4.94-.02,3.56-.04,6.46,1.1,8.05,4.67.14-.3.25-.52.35-.73v4.1c-.44-.67-.19-1.45-.33-2.2-.41,2.71-1.04,3.67-3.18,4.88-.31.18-.66.29-.96.47-.64.38.13.34.16.52h-12.06Zm5.59-1.1c1.16,0,2.2-.02,3.23-.18,2.07-.33,3.95-2.05,4.24-3.91.29-1.87-.83-3.75-2.88-4.7-1.81-.84-3.74-.9-5.69-.73-1.31.12-2.54.48-3.6,1.29-3.03,2.3-2.68,5.9.72,7.63,1.31.67,2.7.64,3.98.6Z"/>
  <path class="cls-1" d="m50.97,161.3c.66-1.2,1.86-1.75,2.92-2.48,1.18-.81,2.38-1.61,3.57-2.41.88-.59.89-.84,0-1.47-2-1.4-4.01-2.78-6.01-4.19-.3-.21-.83-.37-.67-.85.16-.46.68-.29,1.05-.3,1.29-.05,2.44.26,3.49,1.12,1.27,1.05,2.67,1.94,3.99,2.93.79.59,1.47.64,2.33.02,1.65-1.21,3.38-2.3,5.08-3.44.58-.39,1.19-.68,1.91-.62.31.02.72-.04.81.36.08.34-.3.45-.53.6-1.86,1.22-3.73,2.43-5.58,3.66-1.66,1.1-1.66,1.11,0,2.27,1.59,1.11,3.18,2.22,4.8,3.29.6.39.84,1.07,1.36,1.51h-4.31c.27-.17.8-.26.19-.69-1.68-1.21-3.35-2.42-5.02-3.65-.4-.29-.77-.29-1.18-.01-1.74,1.18-3.49,2.35-5.23,3.54-.27.18-.71.33-.39.81h-2.58Z"/>
  <path class="cls-1" d="m82.63,161.3c.26-.1.52-.21.85-.34-1.34-.44-2.49-1.07-3.44-2.05-2.19-2.25-2.06-5.26.35-7.27,1.48-1.23,3.21-1.9,5.12-2.02,3.9-.26,7.81-.22,11.71-.17.6,0,1.58-.1,1.58.69,0,.84-.98.64-1.57.64-3.3.01-6.59-.01-9.89-.02-1.61,0-3.04.52-4.22,1.61-2.2,2.02-2.03,4.85.35,6.68,1.47,1.13,3.15,1.31,4.9,1.12,2.33-.25,4.67-.24,6.98-.06,1.38.11,2.72.78,4.08,1.2h-16.8Z"/>
  <path class="cls-1" d="m73.15,161.3c-.06-3.41-.37-6.81-.1-10.23.11-1.31,1.04-1.89,2.29-1.39.42.17.48.49.48.87-.01,3.13-.02,6.25-.05,9.38,0,.46-.17.91-.25,1.37h-2.37Z"/>
  <path class="cls-1" d="m30.69,136.44c0-2.77,0-5.54,0-8.31,0-1.29.15-1.5,1.43-1.38,3.26.32,6.53.1,9.79.21,3.22.1,5.64,2.53,5.44,5.46-.13,1.85-1.07,3.27-2.68,4.17-.76.43-.99.72-.15,1.32,1.33.94,2.02,2.31,2.29,3.89.19,1.1.35,2.2.54,3.3.12.71-.12,1.06-.89,1.11-1.85.14-2.06-.04-2.24-1.92-.13-1.32-.28-2.65-.92-3.85-.75-1.43-1.95-2.32-3.51-2.58-1.59-.27-3.22-.24-4.83-.23-.81,0-1.17.36-1.16,1.18.03,2.08-.02,4.17.03,6.26.02.81-.31,1.08-1.05,1.13-1.84.13-2.06-.05-2.05-1.89,0-2.62,0-5.25,0-7.87-.01,0-.03,0-.04,0Zm7.41-.81s0-.01,0-.02c.79,0,1.58-.08,2.36.02,1.46.17,2.37-.61,3.13-1.67.72-1.01.83-2.15.28-3.26-.51-1.02-1.23-1.89-2.51-1.9-2.15-.03-4.29-.01-6.44-.02-.74,0-1.13.31-1.12,1.1.02,1.54.03,3.08,0,4.62-.01.84.4,1.15,1.19,1.14,1.04-.02,2.07,0,3.11,0Z"/>
  <path class="cls-1" d="m68.43,136.68c.14,2.47-.21,4.83-1.87,6.79-1.78,2.11-4.25,2.72-6.84,2.91-1.92.14-3.79-.16-5.57-.97-2.13-.97-3.51-2.59-4.08-4.85-.69-2.74-.62-5.51.1-8.22.74-2.79,2.43-4.76,5.32-5.54,2.79-.75,5.57-.74,8.25.32,3.34,1.33,4.4,4.21,4.68,7.51.06.68,0,1.37,0,2.05Zm-3.06-.37c.05-1.12-.07-2.4-.39-3.66-.68-2.62-2.72-4.21-5.6-4.32-2.85-.11-5.1,1.32-5.88,3.91-.78,2.63-.88,5.32-.13,7.98.8,2.84,2.76,4.21,5.86,4.2,2.78,0,5.01-1.68,5.76-4.3.34-1.19.4-2.41.38-3.81Z"/>
  <path class="cls-1" d="m21.33,136.47c0,2.77,0,5.53,0,8.3,0,1.22-.23,1.42-1.57,1.43-1.23,0-1.52-.23-1.53-1.38-.02-1.98-.03-3.95.01-5.93.02-.98-.36-1.34-1.33-1.33-2.62.03-5.23.02-7.85-.02-1.03-.02-1.38.41-1.35,1.42.06,1.97.03,3.95,0,5.93-.01,1.13-.26,1.31-1.57,1.33-.91.01-1.53-.22-1.52-1.31.02-5.57.01-11.14.03-16.7,0-.68.02-1.42,1.05-1.4,1.69.04,2.03.26,2.03,1.5,0,1.83.02,3.66-.02,5.5-.02.95.3,1.38,1.3,1.36,2.72-.04,5.45-.04,8.17-.02.87,0,1.24-.36,1.23-1.22-.02-1.94.02-3.88-.02-5.82-.02-1.02.38-1.42,1.41-1.38,1.32.06,1.51.17,1.52,1.35.01,2.8,0,5.6,0,8.41h.02Z"/>
  <path class="cls-1" d="m96.94,134.93c1.51,0,3.01-.02,4.52,0,.73.01,1.62-.14,1.65,1.02.03,1.2-.87,1.02-1.59,1.02-2.87.01-5.74-.01-8.61.01-1.8.02-2.02.31-1.72,2.05.53,3.03,2.28,4.61,5.34,4.73,1.72.07,3.44.02,5.16.05.68.01,1.42-.04,1.43,1,0,1.13-.8,1.05-1.5.98-1.97-.2-3.94-.15-5.91-.18-4.25-.05-6.82-2.24-7.6-6.44-.49-2.66-.52-5.3.51-7.85,1.28-3.18,3.85-4.67,7.08-4.99,2.06-.2,4.16-.04,6.24-.03.62,0,1.15.11,1.16.92,0,.85-.45,1.14-1.22,1.12-1.83-.04-3.65.05-5.48.17-3,.2-5.19,2.45-5.3,5.47-.03.74.38.93,1,.93,1.61,0,3.23,0,4.84,0h0Z"/>
  <path class="cls-1" d="m79.88,137.47c0,2.3,0,4.6,0,6.9,0,1.49-.15,1.65-1.54,1.64-1.31,0-1.55-.25-1.55-1.71,0-4.56,0-9.13.01-13.69,0-1.79,0-1.75-1.74-1.91-1.36-.12-2.72-.14-4.08-.14-.62,0-1.06-.21-1.07-.91,0-.71.48-.88,1.08-.92,4.91-.29,9.82-.2,14.73,0,.62.03,1.02.25,1.04.95.03.76-.38,1.04-1.05,1.05-1.51.03-3.01.05-4.52.03-.96-.01-1.34.39-1.32,1.36.04,2.44.01,4.89.01,7.33Z"/>
  <path class="cls-1" d="m27.72,136.34c0,2.69,0,5.38,0,8.07,0,.52.15,1.19-.46,1.44-.74.3-1.56.29-2.3-.03-.5-.22-.42-.8-.43-1.25-.03-1.94-.05-3.87-.03-5.81.02-3.59.11-7.17.08-10.76,0-1.22.64-1.27,1.56-1.3,1.01-.03,1.43.34,1.41,1.37-.03,2.76-.01,5.52-.01,8.28h.19Z"/>
</svg>