<?xml version="1.0" encoding="UTF-8"?>
<svg id="Capa_1" data-name="Capa 1" xmlns="http://www.w3.org/2000/svg" xmlns:xlink="http://www.w3.org/1999/xlink" viewBox="0 0 236.76 65.53">
  <defs>
    <style>
      .cls-1 {
        fill: #9d9d9c;
      }

      .cls-2 {
        fill: #706f6f;
      }

      .cls-3 {
        fill: url(#Degradado_sin_nombre_7);
      }
    </style>
    <linearGradient id="Degradado_sin_nombre_7" data-name="Degradado sin nombre 7" x1="2.6" y1="22.55" x2="91.37" y2="22.55" gradientUnits="userSpaceOnUse">
      <stop offset="0" stop-color="#706f6f"/>
      <stop offset="1" stop-color="#b2b2b2"/>
    </linearGradient>
  </defs>
  <path class="cls-3" d="m31.57,2.43c6.09,0,12.17.03,18.26-.01,3.44-.03,6.88.06,10.32,0,6.39-.12,12.78-.04,19.16-.07,1.56,0,3.12.13,4.61.63,4.15,1.38,6.51,4.3,7.15,8.54.38,2.52.38,5.1.04,7.63-.59,4.34-4.31,8.2-8.55,8.95-1.36.24-2.75.29-4.13.2-2.69-.17-5.38-.11-8.07-.04-.48.01-.95-.02-1.43-.04-1.18-.06-1.32.06-1.34,1.21-.02,1.15-.01,2.3-.01,3.45,0,3.1.01,6.2.04,9.3,0,.42-.16.54-.52.54-2.97,0-5.94.07-8.9-.01-1.96-.06-3.35-1.66-3.35-3.63,0-8,.01-16.01,0-24.01,0-2.82-1.63-4.46-4.41-4.43-2.44.02-4.88,0-7.32,0-2.36,0-3.92,1.55-3.93,3.88,0,7.9,0,15.81,0,23.71,0,.74-.11,1.44-.36,2.13-.53,1.47-1.73,2.38-3.32,2.39-2.62.02-5.23-.02-7.85,0-.72,0-.74-.41-.74-.92,0-4.08,0-8.15,0-12.23,0-1.26-.01-1.25-1.28-1.25-3.27,0-6.54-.02-9.81-.03-1.01,0-1.09.06-1.09,1.04,0,3.03-.06,6.05.02,9.08.07,2.53-1.9,4.5-4.37,4.33-2.3-.15-4.63-.05-6.94-.02-.61,0-.85-.17-.85-.8.02-10.16.02-20.31,0-30.47,0-.73.28-1.36.52-2.02,1.56-4.34,5.23-6.97,9.88-7,6.19-.03,12.38,0,18.57,0h0Zm41.03,17c.33,0,.65,0,.98,0,1.05-.01,2.12.07,3.16-.07,1.75-.24,2.47-1.53,2.87-3.07.76-2.94-.99-5.37-3.38-5.57-2.68-.22-5.37-.05-8.06-.09-.53,0-.59.36-.59.77,0,1.3,0,2.6,0,3.9,0,1.12,0,2.25.02,3.37,0,.44.08.9.71.82,1.43-.17,2.86-.04,4.29-.07Zm-51.68,0h0c1.76,0,3.52,0,5.28.01.5,0,.75-.14.75-.67-.01-2.25-.01-4.5-.02-6.75,0-.42-.17-.66-.62-.66-2.86,0-5.73-.05-8.59.04-1.66.05-2.95,1.57-2.96,3.23-.01,1.25,0,2.5,0,3.75,0,.94.14,1.06,1.11,1.06,1.68,0,3.37,0,5.05,0Z"/>
  <path class="cls-1" d="m185.2,53.03c-.83,1.44-2.08,2.1-3.74,2.07-.7-.02-1.41.06-2.11.04-.43-.01-.52.19-.52.54,0,.88,0,1.75.02,2.63.02.56-.2.73-.77.69-1.71-.12-1.7-.1-1.7-1.77,0-1.25,0-2.5,0-3.75,0-1.6.02-3.2-.01-4.8-.01-.62.24-.87.84-.86,1.43,0,2.8,0,4.23,0,1.82.03,3.09,1.06,3.31,1.27.34.34.76,1.16.77,1.87.08,1.16-.21,1.87-.33,2.07Zm1.21-2.01c1.7-2.81,3.41-3.6,6.46-3.34,1.47.13,2.63.95,3.47,1.89.92,1.03,1.25,2.3,1.35,3.65.31,4.19-3.76,6.8-7.41,5.8-2.83-.78-4.38-2.87-4.37-5.62,0-.07.03-1.51.5-2.38Zm5.38,5.9c2.6.07,3.96-2.77,2.97-5.01-.6-1.36-2.24-2.18-3.52-1.89-1.56.35-2.51,1.6-2.61,3.24-.05.87.13,1.68.6,2.25.58.71,1.45,1.41,2.56,1.41Zm-11.47-6.85q-1.47.04-1.48,1.44c0,.17-.02.35-.04.52-.08.53.15.74.68.7.62-.05,1.25-.09,1.87-.07.83.03,1.27-.23,1.38-.91.13-.81-.23-1.35-1.06-1.51-.44-.09-.89-.11-1.34-.16Z"/>
  <path class="cls-1" d="m218.98,53.84c.04,2.94-2.72,5.37-5.99,5.39-3.39.02-5.99-2.46-5.91-5.67.09-3.41,2.23-5.78,5.71-5.88,3.97-.12,6.35,2.59,6.18,6.16Zm-9.18-.6c.43,2.02.96,3.73,3.19,3.68,1.63-.03,3.23-1.65,3.24-3.38.02-1.99-1.35-3.61-3.07-3.55-2.24.07-3.12,1.24-3.36,3.25Z"/>
  <path class="cls-2" d="m77.19,54.94c0-.81,0-1.47,0-2.13,0-1.4.02-2.8,0-4.2-.01-.62.23-.83.85-.82,1.32,0,1.33-.02,1.33,1.31,0,2.98-.02,5.95.02,8.93.01.79-.29.97-1.02.97-.72,0-1.17-.18-1.67-.8-1.49-1.86-2.84-3.81-4.23-5.74-.11-.16-.21-.4-.45-.31-.23.08-.18.33-.18.53,0,1.83-.03,3.65.02,5.48.01.61-.12.85-.78.84-1.78-.04-1.55.11-1.55-1.52,0-2.78,0-5.55.01-8.33,0-.45-.18-1,.38-1.27.58-.28,1.76-.04,2.16.43,1.42,1.63,2.6,3.43,3.84,5.19.34.48.66.98,1.27,1.46Z"/>
  <path class="cls-1" d="m224.09,47.76c1.25-.13,2.39.32,3.51.75.97.37.97,1.15.32,1.93-.66.78-1.17.54-1.84.16-.83-.48-1.75-.61-2.7-.51-.38.04-.8.08-.88.55-.08.46.17.77.59.93.37.15.76.38,1.14.37,1.16-.04,2.14.46,3.14.88.68.28,1.15.88,1.38,1.52.59,1.64-.35,3.58-1.9,4.36-1.94.97-5.46.55-7.07-1.06-.33-.33-.55-.61-.02-.94.12-.08.23-.2.32-.31.71-.87.75-.93,1.68-.26,1.05.76,2.2.75,3.39.69.56-.03.79-.39.88-.87.1-.51-.24-.74-.64-.88-1.16-.4-2.38-.62-3.53-1.09-1.91-.78-2.61-2.4-1.74-4.26.52-1.11,1.43-1.79,2.7-1.9.43-.04.85-.04,1.28-.06Z"/>
  <path class="cls-2" d="m81.28,53.44c0-1.6,0-3.2,0-4.8,0-.45.09-.83.63-.83,2.1.02,4.21-.23,6.26.56,1.33.52,2.38,1.38,2.84,2.63,1.36,3.72-.15,7.68-4.98,7.94-1.3.07-2.62-.02-3.92.03-.68.02-.86-.24-.84-.88.04-1.55.01-3.1.01-4.65,0,0,0,0,0,0Zm2.29-.09h0c0,.65,0,1.3,0,1.95,0,1.98,0,2,2.01,1.79,1.62-.17,2.95-.79,3.49-2.49.44-1.39.02-2.99-1.15-3.98-1.02-.86-2.28-.94-3.55-.98-.59-.02-.82.22-.81.79.02.97,0,1.95,0,2.92Z"/>
  <path class="cls-2" d="m123.55,53.44c0-1.55.02-3.1-.01-4.65-.01-.69.2-1.02.94-1,1.38.03,2.77-.03,4.15.02,2.74.11,4.29,2.19,3.58,4.75-.22.79-.69,1.41-1.46,1.71-.7.27-.91.5-.39,1.2.68.92,1.22,1.94,1.83,2.92.22.35.21.52-.27.58-1.72.2-1.94.08-2.8-1.44-.39-.7-.84-1.36-1.24-2.05-.4-.7-1.06-.47-1.62-.42-.59.06-.4.6-.41.97-.03.72-.02,1.45,0,2.17.02.53-.16.76-.73.78-1.56.04-1.56.06-1.57-1.49,0-1.35,0-2.7,0-4.05Zm2.3-2.07c0,.38,0,.75,0,1.13,0,.31.12.56.47.56.85-.01,1.71.11,2.54-.2.94-.34,1.3-.83,1.16-1.82-.12-.78-.76-1.06-1.45-1.22-.27-.06-.55-.06-.82-.09q-1.91-.23-1.9,1.65Z"/>
  <path class="cls-2" d="m142.46,47.79c1.43,0,1.4.02,1.89,1.26.95,2.4,1.95,4.77,2.91,7.16.3.74.55,1.5.85,2.24.16.4,0,.5-.36.5-.2,0-.4,0-.6,0-1.35,0-1.41.02-1.8-1.25-.23-.73-.62-.95-1.32-.86-1.05.13-2.1.18-3.16,0-.87-.14-1.16.48-1.21,1.11-.07.89-.5,1.03-1.28,1.01-1.57-.05-1.54,0-.97-1.46.63-1.61,1.2-3.23,1.8-4.85.55-1.5,1.4-2.87,1.81-4.44.21-.81,1-.27,1.43-.44Zm.13,7.19c.4,0,.81.01,1.21,0,.37-.02.51-.23.33-.56-.51-.93-.78-1.94-1.14-2.93-.07-.19-.14-.4-.38-.41-.25,0-.32.21-.4.39-.3.69-.59,1.38-.89,2.07-.57,1.35-.51,1.44.98,1.43.1,0,.2,0,.3,0Z"/>
  <path class="cls-2" d="m113.04,55.72c0,1.59-.92,2.84-2.48,3.25-2.19.58-4.23.19-6.11-1.06-.37-.24-.43-.52-.2-.89.08-.13.16-.26.23-.39.51-.94.61-.94,1.51-.29.91.66,1.93,1.07,3.09.87.32-.06.63-.17.93-.28.53-.19.65-.65.69-1.14.04-.5-.33-.69-.7-.87-1.13-.55-2.45-.55-3.57-1.14-.35-.18-.75-.29-1.1-.48-.59-.31-1-.72-.9-1.48.06-.44-.02-.89.01-1.34.13-1.76,1.87-2.69,3.48-2.82,1.5-.12,2.9.21,4.15,1.05.68.46.66.65,0,1.68-.39.61-.77.4-1.18.09-.81-.62-1.72-.92-2.74-.88-.54.02-.99.23-1.28.68-.32.49-.3.97.27,1.27.57.31,1.16.54,1.86.5,1.89-.12,4.03,1.85,4.02,3.66Z"/>
  <path class="cls-2" d="m95.21,51.79c.14,1.19-.2,2.53.21,3.83.43,1.4,1.9,2.03,3.31,1.52,1.32-.48,1.82-1.46,1.86-2.71.05-1.64.13-3.3-.07-4.94-.04-.32-.01-.65-.03-.97-.02-.48.23-.68.69-.69.15,0,.3-.01.45-.02,1.21-.03,1.29.03,1.27,1.25-.04,1.97.07,3.94-.1,5.92-.29,3.24-2.45,4.45-5.32,4.24-1.07-.08-2.13-.31-3.01-1.05-1.16-.98-1.5-2.28-1.52-3.69-.03-1.92.02-3.85-.02-5.77-.02-.84.45-.93,1.1-.9.62.02,1.24-.05,1.2.89-.04,1,0,2,0,3.12Z"/>
  <path class="cls-2" d="m170.44,47.61c1.22.03,2.35.37,3.42.87.54.25.94.69.5,1.32-.82,1.18-.65,1.2-1.52.65-.94-.59-1.92-.99-3.06-.8-.51.09-1.01.26-1.14.83-.12.57.29.85.72,1.11.95.56,2.04.67,3.06,1.02,2.78.98,3.27,3.49,1.68,5.33-1.06,1.22-2.6,1.34-4.11,1.26-1.24-.06-2.43-.39-3.41-1.25-.57-.5-.57-.87-.02-1.53.44-.52.83-.71,1.43-.14,1.05,1,2.86,1.25,3.99.63.39-.21.74-.47.74-.96,0-.49-.37-.75-.75-.95-.98-.54-2.08-.76-3.14-1.02-1.44-.35-2.5-1.46-2.56-2.83-.06-1.5.91-2.86,2.38-3.26.58-.16,1.19-.2,1.78-.3Z"/>
  <path class="cls-2" d="m157.22,53.4c0-1.55.02-3.1-.01-4.65-.01-.66.17-.97.88-.96,2.04.02,4.07.01,6.11,0,1,0,.73.73.78,1.28.05.61-.24.74-.82.71-1.33-.08-2.66-.08-3.99-.11-.51-.01-.78.16-.79.74-.04,2-.02,2.04,1.99,2.03.88,0,1.76.02,2.64-.02.74-.04.96.3.97.98.01.69-.24.93-.93.91-1.28-.05-2.56-.01-3.85-.04-.58-.01-.83.21-.8.79.08,1.93-.52,2.24,2.03,1.93.89-.11,1.81-.03,2.71-.06.89-.03.82.6.85,1.18.04.61-.21.85-.83.84-2.04-.02-4.07-.03-6.11,0-.64,0-.83-.25-.83-.84.02-1.57,0-3.15,0-4.72Z"/>
  <path class="cls-1" d="m202.41,47.81c1.23,0,2.46,0,3.7,0,.61,0,.85.23.77.87-.18,1.41-.15,1.41-1.6,1.41-.23,0-.45.01-.68,0-.71-.03-.96.27-.92,1,.13,2.45.08,4.9.02,7.35,0,.1.02.25-.03.29-.63.46-1.34.16-2.02.2-.46.03-.47-.35-.47-.69,0-2.33-.04-4.65,0-6.97.01-.81-.23-1.18-1.06-1.06-.1.01-.2,0-.3,0-1.86,0-1.97-.13-1.8-1.94.04-.48.36-.47.7-.47,1.23,0,2.46,0,3.7,0h0Z"/>
  <path class="cls-1" d="m48.87,47.64c3.05.04,5.48,2.58,5.45,5.71-.03,3.42-2.51,5.93-5.79,5.87-3.07-.06-5.31-2.54-5.28-5.84.03-3.4,2.37-5.77,5.63-5.74Zm0,10.35c2.48,0,3.98-1.67,4.05-4.39.06-2.33-1.49-4.79-4.17-4.77-2.61.02-4.29,2.04-4.19,4.48.11,2.65,1.31,4.77,4.32,4.68Z"/>
  <path class="cls-2" d="m116.76,54.31c0-1.3-.01-2.6,0-3.9,0-.55-.22-.79-.77-.74-.6.05-1.2.03-1.8.02-.54-.01-.65-.29-.61-.71.05-.44-.26-1.14.55-1.15,2.51-.03,5.03-.02,7.54,0,.78,0,.69.63.71,1.16.03.53-.22.8-.76.78-.53-.02-1.06-.01-1.58-.08-.71-.09-1.02.14-1.01.89.03,2.45.02,4.9,0,7.35,0,.35.17.87-.31.97-.6.13-1.26.2-1.84-.07-.25-.11-.16-.45-.16-.7,0-1.28,0-2.55,0-3.83,0,0,0,0,.01,0Z"/>
  <path class="cls-1" d="m35.28,56.76c0,.5-.02,1,0,1.5.02.41.04.76-.55.72-.51-.03-.77-.19-.78-.76-.01-1.02.02-2.04.04-3.07.06-2.2.04-4.4,0-6.6,0-.54.1-.78.69-.76,1.21.04,2.42-.03,3.62.03,2.79.13,4.24,2.76,2.89,5.16-.37.67-.98,1.01-1.66,1.21-.65.2-.66.49-.3.96.82,1.05,1.41,2.25,2.33,3.22.1.1.2.27.18.38-.04.22-.27.17-.44.19-.58.07-.99-.11-1.32-.64-.64-1.02-1.36-1.98-2.02-2.98-.52-.78-1.29-.97-2.15-1-.44-.01-.56.26-.56.63,0,.6,0,1.2,0,1.8h0Zm1.91-3.36c.58-.03,1.16-.02,1.72-.11.87-.14,1.67-1.26,1.61-2.17-.05-.92-.95-2.04-1.76-2.08-.93-.04-1.86,0-2.78.01-.48.01-.73.26-.72.76.01.52,0,1.05,0,1.57q0,1.95,1.92,2.01Z"/>
  <path class="cls-1" d="m59.64,47.65c1.25-.03,2.27.37,3.2,1,.43.29.66.66.33,1.14-.36.52-.73.11-1.02-.11-.97-.73-2.07-.86-3.22-.77-.9.07-1.77.98-1.74,1.78.04.81.84,1.25,1.76,1.55,1.5.47,3.12.83,4.23,2.07,1.07,1.19.57,3.43-.89,4.31-1.77,1.06-4.7.74-6.21-.67-.31-.29-.6-.63-.29-1.04.36-.48.74-.11,1.04.11,1.12.86,2.39,1.12,3.76.97.92-.1,1.65-.74,1.79-1.57.16-.93-.2-1.61-1.18-2-.93-.37-1.9-.65-2.85-.98-1.85-.64-2.63-1.69-2.38-3.22.25-1.55,1.47-2.5,3.31-2.57.15,0,.3,0,.35,0Z"/>
  <path class="cls-2" d="m148.9,53.52c0-1.6,0-3.2,0-4.8,0-.85.16-.91,1.39-.94.72-.02.81.3.8.91-.03,2.5,0,5-.03,7.5,0,.73.27,1,.98.94,1.03-.08,2.06-.1,3.08-.2.67-.07.79.33.76.82-.02.49.29,1.21-.65,1.22-1.91.01-3.82,0-5.73,0-.53,0-.61-.28-.6-.72.01-1.58,0-3.15,0-4.73h0Z"/>
  <path class="cls-1" d="m12.65,58.96c-.58-.02-.96-.25-1.13-.82-.55-1.87-.56-1.87-2.49-1.88-1.03,0-2.06.01-3.09,0-.65-.01-1.05.25-1.2.89-.08.34-.2.67-.31,1-.08.27-.21.52-.46.66-.32.19-.71.27-.99.04-.27-.22.05-.5.15-.73,1.37-3.14,2.69-6.3,3.85-9.52.21-.58.6-.68,1.08-.75.49-.06.69.25.87.66,1.13,2.62,2.28,5.22,3.42,7.84.31.71.39,1.49.78,2.18.28.5-.24.38-.48.43Zm-4.6-3.66s0-.01,0-.02c.45,0,.91,0,1.36,0,.99-.02,1.01-.03.65-.97-.52-1.37-1.22-2.68-1.65-4.09-.06-.18-.01-.46-.25-.5-.32-.05-.44.24-.5.47-.32,1.11-.9,2.11-1.36,3.16-.18.41-.29.85-.44,1.27-.16.45-.02.67.47.67.58,0,1.16,0,1.73,0Z"/>
  <path class="cls-1" d="m24.82,53.29c0-1.6.01-3.2,0-4.8,0-.52.1-.74.72-.72,1.86.06,3.72.02,5.58.03.25,0,.52-.04.72.14.18.15.24.38.21.61-.04.33-.32.33-.57.36-1.53.2-3.06.11-4.59.09-.72-.01-1.01.21-.95.94.05.67.04,1.35,0,2.02-.04.66.23.8.85.74,1.43-.13,2.86-.16,4.29.01.35.04.76.01.79.5.03.58-.47.53-.81.54-1.46.04-2.91.07-4.37.03-.56-.01-.78.13-.75.7.04.85.01,1.7.02,2.55,0,.67.25.98,1.02.9,1.53-.16,3.06-.01,4.59.06.28.01.59.07.56.45-.02.33-.28.46-.58.49-2.08.18-4.16,0-6.25,0-.5,0-.48-.41-.48-.77,0-1.62,0-3.25,0-4.87Z"/>
  <path class="cls-1" d="m19.12,58c1.02-.08,2.07-.04,2.72-1.09.23-.37.69-.35,1-.08.35.3.12.66-.13.91-.99,1.02-2.18,1.55-3.64,1.5-4.75-.17-6.64-4.65-5.23-8.15,1.35-3.37,5.71-4.37,8.37-2.41.18.13.37.26.53.42.29.3.43.66.11,1-.37.4-.7.1-.95-.18-1.17-1.27-2.61-1.39-4.14-.88-1.57.52-2.6,1.63-2.98,3.21-.55,2.28.55,4.48,2.57,5.43.56.26,1.15.34,1.76.31Z"/>
  <path class="cls-1" d="m232.59,53.58c0,1.52-.02,3.04,0,4.57,0,.61-.21.83-.84.83-1.77,0-1.75.02-1.78-1.75-.05-2.92.12-5.84-.11-8.75-.04-.48.15-.72.66-.61.43.09.85.07,1.27-.04.54-.15.73.07.72.59-.01,1.72,0,3.44,0,5.16.02,0,.05,0,.07,0Z"/>
  <path class="cls-2" d="m136.1,53.4c0,1.6-.03,3.2.01,4.8.02.76-.41.81-.96.77-.53-.04-1.2.22-1.2-.76.01-3.28-.01-6.55-.04-9.83,0-.38.15-.56.52-.58.05,0,.1,0,.15,0q1.53-.11,1.53,1.4c0,1.4,0,2.8,0,4.2,0,0,0,0-.01,0Z"/>
  <path class="cls-2" d="m67.6,53.39c0,1.57-.03,3.15.01,4.72.02.66-.23.91-.87.86-.6-.04-1.31.18-1.3-.84.02-3.2,0-6.4,0-9.59,0-.54.25-.74.79-.75,1.34-.02,1.39,0,1.38,1.33,0,1.42,0,2.85,0,4.27h0Z"/>
  <path class="cls-1" d="m230.63,47.11c-.22,0-.49.08-.62-.15-.16-.28.1-.47.27-.63.46-.42.89-.87,1.3-1.34.53-.6,1.32-.5,2.04-.55.21-.02.28.16.21.38-.22.69-2.41,2.26-3.19,2.29Z"/>
</svg>