<?xml version="1.0" encoding="UTF-8"?>
<svg id="Capa_1" data-name="Capa 1" xmlns="http://www.w3.org/2000/svg" viewBox="0 0 453.85 74.34">
  <defs>
    <style>
      .cls-1 {
        fill: #706f6f;
      }
    </style>
  </defs>
  <path class="cls-1" d="m269.17,25.5c0,6.3,0,12.61,0,18.91,0,1.38-.02,1.39-1.41,1.39-4.48,0-8.96,0-13.44,0-.06,0-.12,0-.17,0-1.08-.01-1.14-.06-1.14-1.11,0-3.63-.01-7.25-.01-10.88,0-.55,0-1.09,0-1.64-.02-.79-.08-.87-.83-.87-2.95-.01-5.89-.01-8.84,0-.72,0-.8.09-.8.8-.01,1.5,0,2.99,0,4.49,0,2.73,0,5.47,0,8.2,0,.92-.07,1-.98,1-4.71,0-9.42,0-14.13,0-.95,0-1.05-.11-1.08-1.03-.01-.52,0-1.04,0-1.55,0-12.21,0-24.41,0-36.62,0-1.43,0-1.45,1.41-1.45,4.51,0,9.02,0,13.52,0,.2,0,.4.01.61,0,.42,0,.65.19.65.62,0,.26,0,.52,0,.78,0,3.71,0,7.43,0,11.14,0,.26,0,.52,0,.78,0,.35.2.52.54.53.17,0,.35.01.52.01,2.77,0,5.55,0,8.32,0,1.05,0,1.08-.03,1.08-1.06,0-3.8,0-7.6,0-11.4,0-.14,0-.29,0-.43.01-.92.06-.98.99-.98,4.71,0,9.42,0,14.13,0,1.02,0,1.07.05,1.07,1.09,0,6.42,0,12.84,0,19.26,0,0,0,0-.01,0Z"/>
  <path class="cls-1" d="m317.76,25.41c0,6.04,0,12.09,0,18.13,0,.55-.02,1.09-.04,1.64-.01.38-.22.58-.6.6-.23.01-.46.02-.69.02-4.51,0-9.01,0-13.52,0-.06,0-.12,0-.17,0-1.06-.02-1.15-.09-1.15-1.12,0-2.73,0-5.47,0-8.2,0-1.38,0-2.76,0-4.14,0-.99-.04-1.03-1.02-1.04-2.83,0-5.66,0-8.49,0-.94,0-.99.05-.99.97,0,4.09,0,8.17,0,12.26,0,1.27,0,1.27-1.32,1.27-4.51,0-9.01,0-13.52,0-.12,0-.23,0-.35,0-.87-.03-.97-.12-.99-1.02-.01-.58,0-1.15,0-1.73,0-12.15,0-24.29,0-36.44,0-1.68.11-1.45,1.49-1.46,4.51-.01,9.01,0,13.52,0,1.16,0,1.17.01,1.17,1.15,0,3.71,0,7.43,0,11.14,0,.17,0,.35,0,.52,0,1.03.03,1.06,1.07,1.06,2.77,0,5.55,0,8.32,0,1.08,0,1.1-.02,1.11-1.13,0-3.77,0-7.54.01-11.31,0-.26,0-.52,0-.78,0-.42.19-.64.63-.64.29,0,.58-.02.87-.02,4.42,0,8.84,0,13.26,0,.12,0,.23,0,.35,0,1.03.02,1.07.05,1.07,1.09,0,6.39,0,12.78,0,19.17Z"/>
  <path class="cls-1" d="m173.59,26.76c1.49.52,2.91,1.05,4.13,2.03,1.31,1.05,2.34,2.29,2.96,3.87.82,2.08,1.23,4.25,1.66,6.43.39,2.03.67,4.09,1.36,6.06.18.5.09.6-.45.66-.2.02-.4.01-.61.01-4.74,0-9.48,0-14.21,0-.17,0-.35,0-.52,0-.7-.04-.79-.09-.91-.78-.19-1.16-.35-2.33-.51-3.5-.27-2.02-.48-4.06-1.01-6.04-.17-.65-.42-1.25-.79-1.81-.52-.79-1.25-1.27-2.17-1.44-1.63-.3-3.28-.2-4.93-.19-.4,0-.58.2-.57.59,0,.23,0,.46,0,.69,0,3.54,0,7.08,0,10.62,0,.23,0,.46,0,.69-.02,1.1-.08,1.17-1.19,1.17-4.62,0-9.25,0-13.87,0-.17,0-.35,0-.52-.02-.38-.02-.59-.21-.59-.59,0-.26-.02-.52-.02-.78,0-12.69,0-25.39,0-38.08,0-.17,0-.35,0-.52.05-.54.13-.62.69-.66.14-.01.29,0,.43,0,8.67,0,17.33,0,26,.02,2.82,0,5.59.38,8.25,1.35,1.68.61,3.18,1.5,4.39,2.84,1.31,1.44,1.99,3.16,2.2,5.07.31,2.8-.08,5.46-1.8,7.8-1.31,1.78-3.13,2.87-5.13,3.7-.74.31-1.51.56-2.27.84Zm-17.29-8.25h0c0,1.12,0,2.25,0,3.37,0,.84.06.89.88.9,1.3,0,2.6.04,3.9,0,1.12-.04,2.25-.15,3.32-.54,1.05-.38,1.74-1.09,2.06-2.17.27-.9.3-1.83.09-2.73-.25-1.14-.92-1.98-2.03-2.4-.79-.3-1.61-.5-2.45-.52-1.65-.04-3.29-.04-4.94-.04-.75,0-.84.11-.84.86-.01,1.09,0,2.19,0,3.28Z"/>
  <path class="cls-1" d="m321.67,25.8c-.04-4.3.65-8.03,2.56-11.47,1.98-3.57,4.84-6.2,8.66-7.74,3.55-1.43,7.24-2.09,11.07-2.14,3.25-.04,6.46.2,9.61,1.06,2.07.57,4.06,1.32,5.9,2.45,3.96,2.43,6.42,5.98,7.7,10.37,1.39,4.79,1.38,9.61-.02,14.39-1.66,5.68-5.33,9.58-10.84,11.77-2.82,1.12-5.77,1.61-8.77,1.88-3.51.32-6.98.02-10.41-.73-3.49-.76-6.7-2.15-9.39-4.57-2.06-1.85-3.55-4.07-4.54-6.64-1.12-2.91-1.58-5.94-1.52-8.64Zm29.49-.1c0-.83.05-1.67,0-2.5-.14-2.04-.43-4.06-1.44-5.9-.87-1.59-2.18-2.56-3.99-2.86-2.5-.4-4.66.67-5.74,2.89-.39.8-.69,1.65-.87,2.52-.68,3.21-.71,6.45-.32,9.69.17,1.47.63,2.85,1.3,4.18,1.78,3.53,6.69,3.44,8.81,1.19,1.04-1.1,1.59-2.37,1.89-3.81.37-1.78.44-3.59.38-5.41Z"/>
  <path class="cls-1" d="m86.52,29.25c-.18.34-.11.66-.11.96,0,4.23,0,8.46,0,12.69,0,.58,0,1.15-.01,1.73-.02,1.1-.08,1.17-1.19,1.17-4.62,0-9.25,0-13.87,0-.2,0-.4,0-.6-.03-.3-.03-.47-.21-.48-.51-.01-.29-.02-.58-.02-.86,0-12.72,0-25.44,0-38.17,0-.17,0-.35.01-.52.01-.35.2-.53.54-.54.23,0,.46-.02.69-.02,4.56,0,9.13,0,13.69,0,1.25,0,1.25.01,1.26,1.26.01,4.37.02,8.75.03,13.12,0,.31,0,.62,0,1.01.37-.13.46-.39.58-.59,2.94-4.69,5.89-9.37,8.8-14.07.34-.54.7-.75,1.31-.75,5.49.02,10.98.02,16.47.02.14,0,.29,0,.43.02.32.03.41.2.24.47-.12.2-.26.38-.4.56-4.2,5.68-8.4,11.35-12.59,17.03-.09.12-.18.23-.26.35-.41.58-.42.6.02,1.21,1.75,2.47,3.51,4.93,5.26,7.39,3.01,4.22,6.02,8.45,9.02,12.68.16.22.49.43.34.73-.15.29-.51.2-.79.2-5.75,0-11.5,0-17.25.01-.62,0-1-.21-1.33-.75-3.03-5-6.09-9.99-9.14-14.97-.17-.28-.31-.6-.64-.84Z"/>
  <path class="cls-1" d="m411.2,25.43c0-6.3,0-12.61,0-18.91,0-1.37,0-1.37,1.4-1.37,10.83,0,21.67,0,32.5,0,.43,0,.87,0,1.3.02.62.03.7.11.73.71.02.46,0,.92,0,1.38,0,2.24,0,4.49,0,6.73,0,1.03-.05,1.07-1.08,1.07-5.75,0-11.5,0-17.25,0q-1.33,0-1.33,1.36c0,1.32,0,2.65.01,3.97,0,.98.04,1.01,1.04,1.01,5.55,0,11.09,0,16.64,0q1.39,0,1.39,1.37c0,2.39,0,4.78,0,7.17,0,.12,0,.23,0,.35-.02.96-.1,1.05-1.04,1.05-2.25,0-4.51,0-6.76,0-3.29,0-6.59,0-9.88,0-.14,0-.29,0-.43,0-.9.02-.96.07-.96,1.01,0,1.53,0,3.05,0,4.58,0,1.9-.01,3.8,0,5.7,0,.86-.16,1.72-.09,2.59.03.4-.21.57-.58.59-.23.01-.46.01-.69.02-4.54,0-9.07,0-13.61,0-.14,0-.29,0-.43,0-.74-.04-.85-.14-.89-.86-.01-.26,0-.52,0-.78,0-6.25,0-12.49,0-18.74Z"/>
  <path class="cls-1" d="m371.48,25.42c0-6.36,0-12.73,0-19.09,0-.17,0-.35,0-.52,0-.42.19-.65.63-.65.26,0,.52-.01.78-.01,11.01,0,22.02,0,33.03,0,1.46,0,1.46,0,1.46,1.48,0,2.39,0,4.78,0,7.17,0,.2,0,.4-.01.6-.02.42-.23.63-.65.64-.26,0-.52,0-.78,0-5.66,0-11.33,0-16.99,0-1.27,0-1.27,0-1.27,1.3,0,1.18,0,2.36,0,3.54,0,.29.02.57.05.86.04.45.28.67.74.64.26-.01.52,0,.78,0,5.4,0,10.81,0,16.21,0,1.28,0,1.29,0,1.29,1.3,0,2.5,0,5.01,0,7.51,0,1.08-.04,1.12-1.12,1.12-5.55,0-11.1,0-16.65,0-.03,0-.06,0-.09,0q-1.22.01-1.22,1.27c0,1.76,0,3.51,0,5.27,0,2.22,0,4.43,0,6.65,0,1.27-.01,1.27-1.33,1.27-4.51,0-9.02,0-13.53,0-1.28,0-1.32-.04-1.32-1.3,0-6.36,0-12.73,0-19.09h-.01Z"/>
  <path class="cls-1" d="m222.4,39.47c0,1.5,0,2.99,0,4.49,0,.8-.04.86-.84,1.05-2.9.7-5.82,1.18-8.8,1.38-4.09.27-8.07-.24-11.97-1.41-3.14-.94-5.99-2.42-8.44-4.62-2.97-2.66-4.88-5.95-5.79-9.82-.82-3.47-.94-6.94-.13-10.43,1-4.29,3.32-7.71,6.78-10.44,3.34-2.64,7.25-3.84,11.33-4.68,3.17-.65,6.38-.62,9.58-.47,2.51.12,4.99.59,7.45,1.08.66.13.77.26.77.94.02,3.02.02,6.04,0,9.07,0,.81-.16.92-.96.68-1.83-.54-3.69-.96-5.59-1.13-2.93-.26-5.77.01-8.42,1.41-2.98,1.56-4.58,4.06-4.89,7.36-.13,1.35-.09,2.71.21,4.04.65,2.89,2.31,4.98,4.99,6.25,1.55.74,3.2,1.14,4.93,1.21,2.92.12,5.76-.25,8.55-1.11,1.24-.39,1.25-.37,1.25.92,0,1.41,0,2.82,0,4.23Z"/>
  <path class="cls-1" d="m42.7,49.49c-7.58,3.49-20.07,3.24-28.8-5.93-8.97-9.42-9.63-22.98-2.53-33.13C18.41.35,30.63-1.79,36.57-.22c-.03.29-.3.33-.49.42-3.11,1.49-6.02,3.31-8.71,5.46-2.99,2.38-5.51,5.19-7.28,8.57-3.16,6.06-3.31,12.18-.08,18.28,1.02,1.91,2.32,3.64,3.78,5.25,2.88,3.17,6.31,5.63,10.06,7.69,2.61,1.43,5.34,2.62,8.15,3.6.24.08.51.12.71.43Z"/>
  <path class="cls-1" d="m135.52,25.47c0,6.33,0,12.66,0,18.99,0,1.34-.01,1.34-1.34,1.34-4.48,0-8.96,0-13.43,0-.2,0-.41,0-.61,0-.63-.05-.74-.16-.78-.78-.02-.26,0-.52,0-.78,0-12.63,0-25.27-.01-37.9,0-.14,0-.29,0-.43.04-.61.11-.69.71-.74.17-.01.35-.01.52-.01,4.56,0,9.13,0,13.69,0,1.26,0,1.26.01,1.26,1.24,0,6.36,0,12.72,0,19.08h0Z"/>
  <path class="cls-1" d="m58.99,25.16c-.15,6.67-2.17,12.35-6.34,17.25-1.47,1.72-3.16,3.2-4.99,4.52-.78.56-.83.55-1.59,0-3.47-2.55-6.26-5.69-8.22-9.54-.97-1.9-1.5-3.92-1.75-6.02-.53-4.38.75-8.3,3.09-11.95,1.79-2.8,4.12-5.1,6.76-7.1,1.61-1.22,3.3-2.33,5.05-3.35.25-.14.5-.29.76-.41.62-.3.75-.28,1.19.24.89,1.06,1.67,2.2,2.37,3.4,1.91,3.28,3.04,6.83,3.48,10.59.1.88.15,1.78.2,2.38Z"/>
  <path class="cls-1" d="m135.43,59.4c-.38.9-.75,1.79-1.13,2.69-1.09,2.63-2.19,5.27-3.28,7.9-.13.31-.21.67-.58.82-.55.23-1.04.01-1.31-.61-.86-1.98-1.71-3.97-2.56-5.95-.71-1.66-1.43-3.33-2.2-5.13,0,.61,0,1.07,0,1.53,0,2.91,0,5.82,0,8.72,0,.23,0,.46,0,.69-.05.73-.58,1.05-1.26.77-.18-.07-.29-.2-.3-.38-.02-.26-.03-.52-.03-.78,0-3.74,0-7.49,0-11.23,0-.23,0-.46.02-.69.01-.26.16-.43.41-.48.49-.1.98-.09,1.46,0,.41.07.52.42.66.74.74,1.72,1.47,3.44,2.21,5.16.74,1.72,1.47,3.44,2.21,5.16.06.13.09.27.28.38.28-.12.31-.43.42-.67,1.39-3.23,2.77-6.46,4.15-9.69.46-1.08.85-1.3,1.99-1.13.37.06.58.22.6.6.01.23.02.46.02.69,0,3.69,0,7.37,0,11.06,0,.17,0,.35,0,.52-.05.68-.26.83-.95.79-.42-.02-.64-.2-.64-.64,0-.26,0-.52,0-.78,0-3.11,0-6.22,0-9.33,0-.23,0-.46,0-.69l-.18-.05Z"/>
  <path class="cls-1" d="m107.36,64.08c-.04-1.09.15-2.11.5-3.09,1.21-3.47,4.76-4.55,7.5-3.68,1.95.61,3.19,1.94,3.82,3.82.73,2.18.69,4.37-.22,6.5-.96,2.24-2.71,3.37-5.14,3.45-.52.02-1.04.02-1.56-.07-2.07-.39-3.49-1.56-4.29-3.5-.2-.48-.34-.98-.44-1.49-.12-.65-.22-1.31-.18-1.93Zm1.59-.04c-.08,1.37.22,2.69,1.01,3.89,1.62,2.46,5.61,2.45,7.12-.07,1.45-2.42,1.39-4.92.13-7.41-1.36-2.69-5.78-2.77-7.32-.17-.68,1.16-1,2.38-.94,3.75Z"/>
  <path class="cls-1" d="m152.5,63.97c.06,1.58-.25,2.91-.9,4.16-.93,1.79-2.45,2.7-4.42,2.91-.63.07-1.27.06-1.9-.04-1.97-.32-3.45-1.33-4.24-3.17-1.16-2.72-1.16-5.45.31-8.06,1.14-2.02,3.63-3.1,5.93-2.7,3.06.53,5.04,2.85,5.21,6.11.02.32,0,.63,0,.79Zm-6.06-5.55c-1.94-.02-3.24.79-4.02,2.56-.88,2-.9,4.03-.07,6.04.83,1.98,2.2,2.7,4.12,2.72,1.9.01,3.25-.95,3.95-2.69.83-2.04.84-4.11-.1-6.12-.76-1.62-2.01-2.56-3.89-2.5Z"/>
  <path class="cls-1" d="m83.76,62.27c0-1.41,0-2.82,0-4.23,0-.66.26-.86.91-.82.41.03.65.22.66.64,0,.26.01.52.01.78,0,2.3,0,4.6,0,6.91,0,.32,0,.63.01.95.11,2.08,1.46,3.32,3.57,3.26,2.01-.06,3.1-1,3.41-2.98.07-.42.07-.86.07-1.29,0-2.33,0-4.66,0-6.99,0-.12,0-.23,0-.35.02-.75.18-.93.81-.92.61,0,.76.19.79.96,0,.17,0,.35,0,.52,0,2.13,0,4.26,0,6.39,0,.69-.06,1.38-.17,2.06-.3,1.85-1.34,3.08-3.14,3.65-1.22.39-2.45.39-3.67,0-2.03-.63-3.19-2.18-3.26-4.4-.04-1.38,0-2.76,0-4.14,0,0,0,0-.01,0Z"/>
  <path class="cls-1" d="m80.69,70.88c-.44.05-.76-.17-.94-.64-.3-.78-.64-1.54-.94-2.32-.18-.47-.47-.66-.98-.65-1.82.02-3.64.02-5.45,0-.55,0-.84.22-1.03.71-.28.75-.61,1.49-.92,2.23-.09.21-.16.45-.39.56-.35.17-.77.23-1.08.02-.35-.24-.03-.58.09-.84,1.6-3.79,3.2-7.58,4.81-11.37.09-.21.17-.43.27-.64.28-.62.49-.73,1.21-.73.55,0,.82.28,1.01.76,1.2,2.99,2.42,5.97,3.63,8.96.43,1.07.88,2.13,1.3,3.2.25.63.14.76-.6.76Zm-5.54-11.82c-.11.13-.16.16-.18.21-.82,1.99-1.64,3.98-2.44,5.98-.22.55-.1.7.55.71,1.38.02,2.77.01,4.15,0,.73,0,.78-.06.51-.73-.63-1.57-1.26-3.14-1.91-4.71-.19-.47-.33-.97-.67-1.46Z"/>
  <path class="cls-1" d="m183.48,64.03c0-1.9,0-3.8,0-5.7,0-1.01.09-1.11,1.06-1.12,1.62,0,3.23,0,4.85,0,.17,0,.35.01.52.03.43.05.57.32.56.72,0,.44-.22.63-.64.64-1.18,0-2.37.01-3.55.02q-1.19,0-1.19,1.2c0,.89-.01,1.78,0,2.68.01.62.09.7.71.71,1.21.02,2.43,0,3.64.02.58.01.73.2.7.73-.03.48-.21.62-.83.63-1.07.02-2.14.03-3.2.04-.96.01-1.01.06-1.01,1.05,0,.95,0,1.9,0,2.85,0,.88.07.94.93.95,1.18.01,2.37,0,3.55,0,.26,0,.52.01.77.07.35.08.4.39.4.68,0,.31-.11.57-.46.63-.17.03-.35.03-.52.03-1.76,0-3.52,0-5.29,0-.9,0-.99-.09-.99-.99,0-1.96,0-3.91,0-5.87Z"/>
  <path class="cls-1" d="m175.33,68.94c.28-.17.3-.45.39-.68,1.29-3.39,2.58-6.78,3.87-10.17.28-.74.51-.92,1.09-.86.48.05.62.23.46.68-.33.92-.7,1.83-1.05,2.74-1.22,3.14-2.45,6.28-3.67,9.41-.27.7-.42.8-1.06.8-.67,0-.85-.12-1.12-.83-.73-1.88-1.45-3.76-2.17-5.64-.75-1.96-1.51-3.92-2.26-5.88-.03-.08-.07-.16-.09-.24-.06-.33-.49-.69.04-.97.5-.26,1.15,0,1.36.52.36.91.69,1.83,1.03,2.75.92,2.51,1.84,5.03,2.77,7.54.11.28.16.6.42.83Z"/>
  <path class="cls-1" d="m159.78,64.71c0,1.78,0,3.56,0,5.35,0,.69-.16.83-.8.83-.61,0-.75-.13-.8-.75-.02-.23,0-.46,0-.69,0-3.13,0-6.27,0-9.4,0-.09,0-.17,0-.26q0-1.17-1.14-1.17c-.61,0-1.21,0-1.82,0-.17,0-.35,0-.52-.02-.39-.03-.55-.26-.55-.63,0-.39.08-.69.54-.73.2-.02.4-.02.6-.02,2.48,0,4.96,0,7.44,0,.17,0,.35,0,.52.01.42.02.63.23.63.65,0,.48-.16.7-.65.72-.84.03-1.67.01-2.51.02-.9.01-.94.05-.94.92,0,1.72,0,3.45,0,5.17h0Z"/>
  <path class="cls-1" d="m100.09,64.68c0-1.7,0-3.4,0-5.09,0-.92-.06-.96-.99-.97-.78,0-1.56.01-2.34-.02-.58-.02-.75-.28-.68-.84.04-.31.21-.47.5-.51.23-.03.46-.04.69-.04,2.46,0,4.91,0,7.37,0,.14,0,.29,0,.43,0,.57.05.76.24.74.73-.02.46-.19.63-.72.65-.72.03-1.44.01-2.17.02q-1.21,0-1.21,1.17c0,3.22,0,6.45,0,9.67,0,.23,0,.46,0,.69-.04.6-.15.71-.72.73-.69.03-.86-.11-.87-.85-.02-1.47,0-2.94,0-4.4,0-.32,0-.63,0-.95Z"/>
  <path class="cls-1" d="m167.42,64.11c0,1.98,0,3.97,0,5.95,0,.71-.19.86-.89.83-.59-.03-.7-.15-.7-.92,0-3.94,0-7.88,0-11.81,0-.06,0-.12,0-.17.05-.6.22-.77.8-.76.58,0,.78.17.78.77.02,2.04,0,4.08,0,6.12h0Z"/>
</svg>