<?xml version="1.0" encoding="UTF-8"?>
<svg id="Capa_1" data-name="Capa 1" xmlns="http://www.w3.org/2000/svg" viewBox="0 0 1200 210.22">
  <defs>
    <style>
      .cls-1 {
        fill: none;
        opacity: .51;
      }

      .cls-2 {
        fill: #404040;
      }

      .cls-3 {
        fill: #727171;
      }

      .cls-4 {
        fill: gray;
      }
    </style>
  </defs>
  <g class="cls-1">
    <g id="_4fCPEm.tif" data-name="4fCPEm.tif">
      <g>
        <path class="cls-2" d="m1043.01,116.99c-.69-.24-.74-.9-.9-1.46-5.18-18.3-14.56-34.28-26.92-48.6-10.88-12.61-23.45-23.2-37.93-31.48-8.48-4.86-17.41-8.7-26.86-11.28-.38-.1-.84-.05-1.19-.63,1.97.05,3.81.33,5.64.62,17.84,2.88,33.53,10.51,47.55,21.71,12.9,10.31,23.21,22.78,30.66,37.51,5.16,10.2,8.59,20.96,9.72,32.4.03.32.15.62.22.93v.28Z"/>
        <path class="cls-4" d="m762.65,98.68c0-5.39,0-10.79,0-16.18,0-1.71.07-1.77,1.82-1.77,5.35,0,10.71-.03,16.06,0,6.84.05,11.18,4.53,10.97,11.32-.06,1.9-.66,3.63-2.03,5.01-.55.55-.61.93.09,1.41,5.5,3.74,4.77,13.84-2.17,16.87-1.93.84-3.92,1.39-6.02,1.4-5.72.04-11.45,0-17.17.05-1.25.01-1.58-.49-1.57-1.65.04-5.49.02-10.97.02-16.46Zm13.99,10.57c1.43,0,2.85,0,4.28,0,.14,0,.28,0,.41-.01,2.21-.15,3.45-1.4,3.47-3.49.02-2.03-1.16-3.33-3.36-3.39-3.17-.1-6.35-.03-9.53-.05-.9,0-1.22.44-1.2,1.28.02,1.42.04,2.85,0,4.27-.03.99.36,1.43,1.37,1.4,1.52-.04,3.04-.01,4.56-.01Zm-.52-14.39s0,0,0,0c1.34,0,2.68.05,4.01-.01,2.13-.09,3.32-1.29,3.33-3.26.02-2.01-1.13-3.27-3.24-3.33-2.76-.08-5.53-.02-8.3-.04-.9,0-1.22.42-1.21,1.27.03,1.38.03,2.76,0,4.14-.02.88.38,1.25,1.25,1.23,1.38-.02,2.77,0,4.15,0Z"/>
        <path class="cls-4" d="m941.57,98.67c0-5.35,0-10.69,0-16.04,0-1.85.05-1.9,1.82-1.91,4.57,0,9.14-.11,13.71.04,4.35.14,8.32,1.42,10.93,5.23,2.98,4.35,3.15,12.4-3.03,16.43-1.08.71-1,1.22-.36,2.17,2.43,3.59,4.79,7.22,7.17,10.85.22.33.67.66.44,1.09-.23.42-.75.23-1.15.24-2.31.01-4.62-.03-6.92.02-.99.02-1.63-.31-2.15-1.16-1.86-3.02-3.81-5.99-5.66-9.02-.55-.89-1.18-1.32-2.23-1.25-1.01.07-2.03.06-3.04,0-1.08-.06-1.48.4-1.46,1.47.04,2.72.02,5.44,0,8.16,0,1.7-.09,1.77-1.82,1.78-1.48,0-2.96-.07-4.43.02-1.38.09-1.86-.38-1.84-1.8.07-5.44.03-10.88.03-16.32Zm8.08-5.57c0,1.2,0,2.39,0,3.59,0,.6.14,1.15.88,1.14,2.53-.04,5.08.33,7.57-.29,3.09-.76,4.61-3.77,3.3-6.53-.91-1.92-2.64-2.65-4.63-2.75-1.93-.1-3.87-.02-5.81-.06-.93-.02-1.36.36-1.33,1.31.03,1.2,0,2.39.01,3.59Z"/>
        <path class="cls-4" d="m817.35,80.07c10.5.13,18.88,8.6,18.73,18.92-.15,10.24-8.86,18.8-19.05,18.51-11.23-.32-18.76-9.53-18.45-19.32.32-10.02,8.65-18.24,18.77-18.12Zm-.1,29.47c6.04.01,10.99-4.87,10.96-10.82-.03-5.93-4.91-10.77-10.88-10.77-6.07,0-10.85,4.7-10.89,10.7-.03,6.13,4.68,10.88,10.8,10.89Z"/>
        <path class="cls-4" d="m916.16,80.13c10.36,0,18.81,8.21,18.73,18.55-.08,10.86-8.48,18.67-18.71,18.82-10.16.15-18.78-8.45-18.85-18.6-.07-10.39,8.35-18.79,18.83-18.78Zm10.78,18.62c0-6.07-4.71-10.8-10.78-10.8-6.08,0-10.83,4.7-10.84,10.74-.01,6.19,4.66,10.86,10.85,10.85,6.12-.01,10.77-4.67,10.77-10.78Z"/>
        <path class="cls-4" d="m978.68,98.76c0-5.44.03-10.88-.02-16.32-.01-1.33.45-1.75,1.76-1.74,7.66.05,15.32.05,22.99,0,1.32,0,1.84.42,1.75,1.75-.09,1.28-.01,2.58-.02,3.87,0,1.82-.06,1.88-1.85,1.89-4.85,0-9.69,0-14.54,0q-2.17,0-2.17,2.23c0,1.01.05,2.03-.01,3.04-.08,1.2.4,1.62,1.61,1.61,4.38-.05,8.77-.02,13.15-.02,1.97,0,2.05.08,2.06,2,0,1.15,0,2.3,0,3.46,0,1.96-.09,2.05-2.01,2.05-4.34,0-8.68.05-13.02-.03-1.41-.02-1.92.43-1.81,1.82.1,1.14.07,2.31,0,3.45-.06,1.1.43,1.44,1.48,1.43,4.98-.03,9.97-.01,14.95-.01q2.13,0,2.14,2.16c0,1.34-.03,2.67,0,4.01.02.91-.32,1.35-1.29,1.35-7.94-.02-15.88-.02-23.82,0-1.17,0-1.36-.59-1.36-1.56.02-5.48.01-10.97,0-16.45Z"/>
        <path class="cls-4" d="m842.46,98.73c0-5.25,0-10.5,0-15.75q0-2.25,2.32-2.25c1.34,0,2.68.07,4.01-.02,1.32-.08,1.77.4,1.76,1.73-.05,8.2-.02,16.4-.02,24.6q0,2.22,2.19,2.22c3.97,0,7.93.03,11.9-.01,1.24-.01,1.76.43,1.7,1.7-.07,1.38-.07,2.77,0,4.14.06,1.23-.35,1.71-1.65,1.7-6.87-.05-13.75-.04-20.62,0-1.21,0-1.61-.43-1.6-1.61.04-5.48.02-10.96.02-16.45Z"/>
        <path class="cls-4" d="m870.96,98.65c0-5.34,0-10.69,0-16.03,0-1.85.04-1.89,1.83-1.9,1.52,0,3.05.06,4.57-.02,1.27-.07,1.7.41,1.69,1.67-.04,6.86-.02,13.73-.02,20.59,0,1.57.05,3.13-.02,4.7-.05,1.2.4,1.63,1.6,1.61,4.06-.05,8.12-.02,12.18-.02,1.93,0,2.01.09,2.01,2.04,0,1.38-.02,2.76,0,4.15.02.92-.35,1.33-1.31,1.33-7.06-.02-14.11-.02-21.17,0-1.16,0-1.38-.57-1.37-1.55.02-5.53.01-11.05,0-16.58Z"/>
        <path class="cls-2" d="m940.33,130.26q3.23,0,3.23,2.49c0,4.49-1.67,6.05-6.29,5.89-2.93-.1-5.31-1.81-6.22-4.47-.95-2.76-.12-5.87,2.03-7.69,2.16-1.83,5.8-2.09,8.46-.55.53.31,1.45.5,1.11,1.45-.37,1.02-1.63,1.54-2.52,1.13-1.11-.52-2.23-.83-3.48-.45-1.53.47-2.43,1.49-2.71,3.01-.28,1.51.08,2.87,1.39,3.8,1.32.95,2.78.84,4.23.35.57-.19.91-.65.8-1.29-.12-.71-.72-.56-1.2-.64-.77-.12-1.87.42-2.05-.99-.21-1.68.08-2.03,1.82-2.05.46,0,.92,0,1.38,0Z"/>
        <path class="cls-2" d="m922.22,138.64c-3.98.02-6.96-2.9-6.96-6.82,0-3.87,2.94-6.84,6.79-6.86,3.93-.02,7.01,2.98,7.01,6.83,0,3.82-3.01,6.83-6.84,6.85Zm-.07-3.13c2.16-.01,3.71-1.6,3.69-3.77-.02-2.1-1.59-3.67-3.66-3.66-2.14,0-3.79,1.63-3.79,3.72,0,2.16,1.59,3.73,3.76,3.71Z"/>
        <path class="cls-2" d="m1000.3,138.66c-1.92.01-3.68-.37-4.96-1.96-.4-.5-.9-1.16-.06-1.62.69-.38,1.34-1.54,2.34-.38,1.08,1.24,2.51,1.24,3.96.95.6-.12,1.14-.47,1.18-1.19.04-.75-.51-1.04-1.11-1.21-1.37-.38-2.84-.38-4.17-.95-2.07-.9-2.91-2.86-2.07-4.87.28-.66.69-1.22,1.31-1.56,2.41-1.31,4.85-1.35,7.25,0,.52.29,1.53.74.94,1.49-.51.65-1.26,1.67-2.42.96-.88-.53-1.81-.64-2.79-.54-.63.07-1.27.25-1.36.95-.09.76.59.98,1.17,1.12.94.22,1.91.32,2.85.54,2.48.57,3.83,2.05,3.78,4.08-.05,2.09-1.71,3.71-4.19,4.06-.55.08-1.1.07-1.66.1Z"/>
        <path class="cls-2" d="m956.82,138.68c-1.83.02-3.51-.38-4.76-1.81-.41-.47-1.17-1.1-.25-1.72.71-.48,1.46-1.55,2.47-.39.85.97,1.97,1.12,3.16,1.03.85-.06,1.79-.14,1.87-1.23.08-1.21-.94-1.31-1.8-1.48-.81-.16-1.65-.24-2.45-.44-2.29-.58-3.42-1.85-3.39-3.78.03-1.8,1.52-3.42,3.63-3.78,1.85-.31,3.71-.27,5.33.87.47.33,1.39.71.85,1.44-.5.67-1.23,1.55-2.31.98-.99-.52-1.99-.71-3.07-.54-.59.09-1.08.36-1.09,1.04-.01.63.48.88.98.99.99.22,2,.34,2.99.57,2.5.59,3.79,2.04,3.72,4.12-.07,2.02-1.55,3.53-3.95,3.97-.63.12-1.28.11-1.93.16Z"/>
        <path class="cls-2" d="m988.6,138.64c-3.34-.02-5.6-1.47-6.56-4.11-1.04-2.87-.27-6.27,1.8-8.01,2.2-1.84,5.77-2.18,8.17-.66.59.37,1.78.61,1.15,1.79-.65,1.2-1.5,1.42-2.63.81-1.51-.82-3.85-.49-4.88.69-1.2,1.38-1.3,3.71-.22,5.14,1.12,1.47,3.21,1.99,4.97.89,1.27-.79,1.96-.46,2.77.51.51.61.45,1.03-.12,1.5-1.35,1.13-2.91,1.53-4.47,1.46Z"/>
        <path class="cls-4" d="m1019.59,46.19c.9-1.56,1.64-2.88,2.4-4.18,1.84-3.14,3.71-6.27,5.52-9.43.55-.96,1.01-1.14,1.84-.26,1.45,1.55,2.98,3.02,4.49,4.51.55.54.61.97-.13,1.4-4.47,2.6-8.92,5.22-13.39,7.82-.11.06-.26.05-.74.13Z"/>
        <path class="cls-2" d="m969.08,125.22c1.43,0,2.86.03,4.28,0,1.14-.03,1.24.65,1.24,1.53,0,.9-.3,1.32-1.28,1.36-2.64.11-2.64.14-2.64,2.86,0,2.02-.04,4.05.01,6.07.04,1.28-.62,1.54-1.72,1.53-1.06,0-1.64-.31-1.61-1.49.05-2.21.01-4.41.01-6.62,0-2.31,0-2.38-2.31-2.33-1.34.03-1.68-.55-1.6-1.74.05-.81.38-1.16,1.19-1.15,1.47.02,2.95,0,4.42,0Z"/>
        <path class="cls-2" d="m908.1,130.34c0,1.15.07,2.31-.02,3.46-.11,1.37.48,1.8,1.77,1.7,1.1-.08,2.22.02,3.32-.02,1.07-.04,1.33.52,1.33,1.46,0,.96-.2,1.62-1.35,1.61-2.31-.03-4.62-.01-6.92,0-.85,0-1.26-.34-1.26-1.24.02-3.6.03-7.19,0-10.79-.01-1.09.55-1.31,1.47-1.3.9,0,1.69.03,1.66,1.26-.03,1.29,0,2.58,0,3.87h0Z"/>
        <path class="cls-4" d="m989.5,77.99c-.62-.08-1.51.32-1.81-.24-.36-.68.5-1.18.9-1.69,1.83-2.37,3.69-4.72,5.57-7.06.4-.5.83-1,1.33-1.39,1.28-.98,2.69-.89,3.62.14.91,1.01.91,2.32-.21,3.48-1.14,1.2-2.42,2.27-3.66,3.37-.9.79-1.88,1.49-2.73,2.33-.86.85-1.81,1.24-3,1.04Z"/>
        <path class="cls-2" d="m946.08,131.85c0-1.79.02-3.59,0-5.38-.02-1.23.76-1.25,1.66-1.26.92,0,1.65.07,1.64,1.28-.03,3.59-.02,7.18,0,10.77,0,1.19-.74,1.29-1.66,1.3-.93,0-1.66-.13-1.64-1.31.03-1.79,0-3.59,0-5.38Z"/>
        <path class="cls-2" d="m979.33,131.84c0,1.79-.03,3.59.01,5.38.03,1.19-.68,1.34-1.61,1.33-.89,0-1.52-.19-1.52-1.29.02-3.59.03-7.17,0-10.76-.01-1.21.69-1.28,1.61-1.3,1.01-.02,1.56.26,1.52,1.39-.05,1.75-.01,3.49-.02,5.24Z"/>
      </g>
    </g>
    <g id="iNU3PP.tif">
      <g>
        <path class="cls-4" d="m563.25,50.22c.22-.1.46-.16.64-.31.82-.65,1.64-1.31,2.43-1.99,1.36-1.17,2.93-2,4.49-2.84,1.77-.95,3.55-1.94,5.42-2.64,2.17-.81,4.42-1.42,6.68-1.96,1.69-.41,3.43-.67,5.17-.83,2.27-.21,4.55-.37,6.83-.36,2.6.01,5.18.4,7.75.84,5.92,1.03,11.35,3.27,16.43,6.4,1.4.86,2.76,1.81,4.06,2.81,3.97,3.04,7.39,6.62,10.36,10.63,1.7,2.3,3.27,4.66,4.42,7.3,1.27,2.91,2.36,5.89,3.1,8.98.48,2,.93,4.01,1.15,6.05.28,2.63.47,5.29.39,7.93-.08,2.45-.47,4.9-.9,7.31-.38,2.13-.92,4.24-1.54,6.31-.39,1.32-1.04,2.58-1.61,3.84-1.84,4.08-4.24,7.82-7.19,11.16-4.02,4.54-8.79,8.18-14.14,11.03-4.86,2.59-9.98,4.53-15.37,5.65-1.64.34-3.38.19-5.08.25-1.53.05-3.06.12-4.6.14-4,.03-8,.02-12,.05-2.58.02-5.16.08-7.74.1-2.37.02-4.74,0-7.2,0,0,.71,0,1.25,0,1.78,0,2.94-.53,5.79-1.42,8.58-2.07,6.45-6.54,10.44-12.91,12.41-1.49.46-3.06.66-4.58,1-.14.03-.23.25-.35.39h-.95c-.05-7.95-.09-15.9-.14-23.85,0-.21-.08-.42-.13-.63.47-.41.97-.8,1.42-1.25,1.61-1.62,3.27-3.19,4.77-4.91,1.26-1.44,2.38-3.03,3.45-4.62,1.14-1.69,2.23-3.42,3.18-5.23.92-1.76,1.68-3.61,2.41-5.46.66-1.68,1.31-3.39,1.74-5.13.43-1.72.63-3.51.86-5.28.22-1.73.49-3.48.51-5.22.08-13.73.1-27.47.15-41.2,0-2.42.04-4.84.06-7.26Zm2.23,66.81c.16.13.33.38.49.38.73-.02,1.51.15,2.12-.45.96-.04,1.92-.09,2.88-.13.06.1.11.28.18.29.4.04.8.07,1.2.06,2-.09,4-.24,6-.29,2.87-.07,5.75-.07,8.63-.09.18,0,.36,0,.54,0,1.87-.06,3.75-.11,5.62-.19.68-.03,1.39-.28,2.04-.16,1.64.3,3.21-.02,4.74-.46,1.64-.47,3.31-.88,4.81-1.8.97-.6,2.17-.83,3.2-1.35.71-.35,1.26-1.03,1.97-1.35,1.15-.51,2.17-1.15,3.05-2.05.97-.99,2.02-1.91,2.97-2.91,1.44-1.52,2.37-3.37,3.31-5.21.39-.77.68-1.6,1-2.41,1.13-2.83,1.55-5.81,1.69-8.81.1-2.16-.13-4.33-.09-6.5.03-1.83-.51-3.51-1.12-5.18-1.86-5.11-4.54-9.7-8.7-13.29-4.73-4.09-10.21-6.38-16.5-6.54-1.97-.05-3.95.05-5.93.09-.13,0-.26.04-.38.09-.3.13-.58.3-.88.4-1.54.47-3.12.86-4.63,1.41-1.62.6-3.27,1.17-4.7,2.18-.2.14-.37.34-.55.52-1.29.86-2.69,1.61-3.86,2.62-2.85,2.46-4.86,5.56-6.5,8.93-.49,1.01-.98,2.01-1.48,3.02-.37,2.16-.77,4.31-1.09,6.47-.2,1.37-.31,2.76-.39,4.15-.03.45-.31,1.07.4,1.34-.04.06-.11.11-.11.17.03,1.11.07,2.22.11,3.32-.1.99-.26,1.99-.28,2.98-.05,2.55-.04,5.1-.02,7.65,0,.28.19.56.29.84,0,.62-.02,1.25-.02,1.87,0,.45,0,.9,0,1.35-.04.12-.11.25-.12.37-.05,2.65-.1,5.3-.13,7.95,0,.25.14.5.21.75Z"/>
        <path class="cls-2" d="m563.25,50.22c-.02,2.42-.05,4.84-.06,7.26-.04,13.73-.07,27.47-.15,41.2-.01,1.74-.28,3.48-.51,5.22-.23,1.77-.43,3.56-.86,5.28-.44,1.75-1.08,3.45-1.74,5.13-.73,1.85-1.49,3.7-2.41,5.46-.94,1.8-2.04,3.53-3.18,5.23-1.07,1.59-2.19,3.18-3.45,4.62-1.5,1.72-3.16,3.29-4.77,4.91-.44.45-.94.83-1.42,1.25-1.63,1.17-3.23,2.41-4.91,3.51-4.21,2.74-8.72,4.83-13.64,5.91-2,.44-4.05.66-6.09.92-.89.12-1.8.13-2.69.13-10.24,0-20.48,0-30.72,0-.94,0-.98,0-.83-.95.23-1.39.42-2.81.82-4.16,1.02-3.37,2.91-6.25,5.39-8.74,2.19-2.19,4.75-3.8,7.65-4.86,2.68-.98,5.46-1.32,8.3-1.12,1.72.12,3.44.43,5.15.37,3.66-.12,7.33-.39,10.86-1.49.77-.24,1.47-.69,2.23-.99.61-.24,1.28-.34,1.86-.62.78-.38,1.51-.87,2.27-1.31.1-.04.23-.05.31-.12,1.28-.99,2.56-1.98,3.83-2.99.23-.19.38-.48.57-.72,1.09-.97,2.08-2.03,2.7-3.39.09-.1.2-.18.27-.29,1.53-2.39,2.65-4.96,3.39-7.69.31-1.14.54-2.31.8-3.47.11-1.05.22-2.1.33-3.15.08-.83.22-1.65.23-2.48.06-4.57.09-9.13.11-13.7.02-3.35.02-6.7.03-10.05,0-.2-.04-.4-.07-.6.03-.88.11-1.76.07-2.64-.11-2.42.41-4.74,1.01-7.05.53-2.03,1.28-3.97,2.34-5.8,1.21-2.07,2.78-3.81,4.72-5.21,2.4-1.73,5.1-2.73,8.03-3.11,1.15-.15,2.3-.29,3.45-.38.4-.03.76.14.75.65Z"/>
        <path class="cls-4" d="m542.88,73.76c.02.2.07.4.07.6,0,3.35,0,6.7-.03,10.05-.03,4.57-.06,9.13-.11,13.7-.01.83-.15,1.65-.23,2.48-.41-.07-.81-.18-1.22-.19-5.05-.05-10.11-.07-15.16-.11-1.56-.01-3.13-.02-4.69-.09-.47-.02-.99-.16-1.4-.4-2.5-1.45-4.77-3.19-6.63-5.44-1.1-1.33-1.87-2.82-2.48-4.41-.09-.24-.12-.51-.2-.9h31.67c.37-1.15.21-2.23.17-3.29,0-.11-.3-.3-.45-.3-.9,0-1.8.08-2.69.08-8.47.05-16.95.07-25.42.14-1.33.01-2.54-.22-3.73-.82-1.6-.8-3.08-1.75-4.41-2.97-2.15-1.96-3.37-4.45-4.31-7.12-.1-.29-.2-.59-.33-.99.3-.02.56-.06.81-.06,13.26.05,26.51.1,39.77.14.33,0,.67-.07,1-.1Z"/>
        <path class="cls-4" d="m542.25,103.73c-.27,1.16-.49,2.32-.8,3.47-.75,2.73-1.86,5.3-3.39,7.69-.07.11-.18.2-.27.29-2.31,0-4.62.02-6.92-.05-.65-.02-1.36-.2-1.92-.51-2.09-1.15-3.91-2.67-5.56-4.41-1.72-1.82-2.78-4.02-3.77-6.27-.02-.05,0-.13,0-.25.15-.02.29-.07.43-.07,6.61.04,13.21.09,19.82.13.8,0,1.59-.02,2.39-.03Z"/>
        <path class="cls-2" d="m590.97,154.45c-.83.33-1.57.63-2.31.91-.95.36-1.76-.04-2.51-.55-.91-.62-1.4-1.53-1.68-2.58-.51-1.87-.09-3.49,1.29-4.8,1.26-1.19,3.54-1.07,4.79.14.12.12.27.23.39.33.06-.05.12-.07.13-.1q.09-1,1.1-1c.7,0,1.4,0,2.17,0,.03.25.08.46.07.68,0,2.63-.06,5.25-.03,7.88.03,2.39-1.29,3.82-3.52,4.06-1.28.14-2.6.09-3.89,0-1.06-.08-2.29-1.54-2.4-2.63-.05-.5.18-.65.64-.59.66.09,1.33.14,1.98.27.33.07.71.22.92.46.47.51,1,.53,1.61.43.65-.11.98-.51,1.07-1.11.09-.59.13-1.19.19-1.78Zm-3.26-3.33s.07.03.11.04c0,.16-.02.32,0,.47.13.71.52,1.33,1.22,1.44.42.07,1-.18,1.35-.48.56-.49.64-2.1.01-2.87-.59-.72-1.7-.76-2.18-.01-.27.41-.35.94-.52,1.41Z"/>
        <path class="cls-2" d="m648.13,153.26c0,.13,0,.26,0,.39-.01.01-.04.03-.04.04,0,.04.03.07.04.1,0,.14.02.27.02.41-.01,0-.04.03-.04.03.01.03.03.06.05.08.05.5.11,1.01.17,1.58-.91,0-1.79.03-2.67-.02-.2-.01-.47-.29-.54-.5-.18-.52-.36-.48-.78-.2-1.52.99-3.15,1.25-4.84.46-1.08-.51-1.54-1.41-1.38-2.6.13-.97.74-1.59,1.63-1.86,1.24-.38,2.52-.64,3.79-.96.15-.04.33-.05.45-.14.24-.18.45-.4.67-.61-.26-.25-.51-.67-.8-.7-.76-.09-1.58-.23-2.12.63-.12.19-.55.26-.84.26-.6,0-1.21-.07-1.81-.12-.72-.06-.8-.23-.5-.87.62-1.36,1.81-1.9,3.15-1.95,1.43-.06,2.87.09,4.3.26.91.1,1.5.75,1.73,1.61.17.64.22,1.31.32,1.96,0,0,0,.03,0,.03,0,.13.01.26.02.39,0,.77,0,1.54,0,2.31Zm-3.54-1.57c-.98.08-1.91.33-2.73.87-.21.14-.33.68-.24.95.09.27.47.56.77.61,1.26.2,2.62-.44,2.2-2.42Z"/>
        <path class="cls-2" d="m577.88,146.57c2.04.09,3.76.69,4.7,2.63.33.68.64,1.5.57,2.22-.16,1.7-.86,3.17-2.53,4-2.26,1.11-5.29.77-6.83-1.02-2.22-2.57-1.18-6.45,2.06-7.48.65-.21,1.35-.24,2.03-.35Zm-1.82,4.68s.05,0,.08.01c0,.16,0,.32,0,.47.02.93.69,1.81,1.43,1.86,1.12.08,1.77-.38,1.91-1.52.08-.65,0-1.35-.18-1.98-.15-.54-.54-.97-1.22-1.01-.79-.04-1.46.13-1.76.94-.14.39-.18.82-.27,1.22Z"/>
        <path class="cls-2" d="m636.72,149.57c-1.06.22-2,.43-2.94.59-.13.02-.35-.16-.45-.3-.61-.84-1.46-.97-2.24-.72-.72.23-1.22,1.08-1.25,1.97-.04.98.14,1.84,1.08,2.38.79.45,1.83.18,2.37-.57.15-.21.47-.36.73-.4.42-.06.86-.03,1.29,0,.42.03.84.12,1.39.2-.09.35-.12.71-.28.99-.8,1.44-2.1,2.17-3.68,2.29-1.38.11-2.79.16-4.07-.58-1.9-1.09-2.79-3.2-2.22-5.31.57-2.12,2.32-3.46,4.52-3.44,1.1,0,2.18-.08,3.27.34,1.23.48,1.86,1.41,2.49,2.57Z"/>
        <path class="cls-2" d="m606.55,146.55c.81.13,1.62.25,2.43.38.92.14,1.45.78,1.87,1.53.23.4.1.63-.39.65-.61.02-1.21.14-1.81.11-.39-.02-.83-.15-1.15-.38-.66-.46-1.4-.56-1.94-.14-.44.34-.47.64.03.85.56.24,1.18.33,1.78.48.86.22,1.76.34,2.58.67,1.8.72,2,3.22.32,4.36-.71.48-1.61.83-2.46.92-1.37.15-2.79.23-4.11-.38-.79-.37-1.39-.91-1.76-1.71-.17-.37-.05-.55.35-.58.51-.03,1.03-.1,1.54-.13.71-.04,1.38-.1,1.9.65.47.67,1.82.56,2.37-.05.28-.31.17-.76-.33-.97-.53-.22-1.1-.33-1.66-.48-.54-.14-1.08-.28-1.62-.41-.93-.22-1.63-.76-2.12-1.57-.52-.86-.2-2.09.74-2.84,1.02-.82,2.2-.94,3.46-.97Z"/>
        <path class="cls-2" d="m619.21,146.8v2.46c-.48,0-.92.02-1.37,0-.37-.02-.54.12-.53.5.01,1.06,0,2.13,0,3.19,0,.47.18.71.69.66.33-.03.67,0,1.07,0,.06.47.12.9.19,1.34.09.63-.11,1.04-.82,1.04-.9.01-1.83.16-2.7,0-1.35-.26-1.89-1.32-1.93-2.89-.03-1.22,0-2.43,0-3.64-.54-.17-1.32.25-1.36-.73-.08-1.69-.1-1.69,1.29-1.99.02-.04.06-.08.06-.12-.27-1.29.46-1.87,1.55-2.27.6-.22,1.16-.57,1.87-.93,0,.95.03,1.76,0,2.56-.03.61.09.96.81.85.37-.06.76-.01,1.21-.01Z"/>
        <path class="cls-2" d="m570.73,155.94h-3.38c-.02-.27-.06-.47-.06-.66,0-3.78,0-7.55-.01-11.33,0-.49.11-.71.63-.69.79.03,1.58.01,2.38,0,.35,0,.54.08.54.49-.01,3.98-.01,7.96-.02,11.94,0,.04-.03.08-.08.25Z"/>
        <path class="cls-2" d="m621.07,155.9c-.02-.29-.05-.51-.05-.73,0-2.62,0-5.24,0-7.87,0-.43.03-.6.59-.54.93.11,1.89.03,2.9.03.01.25.04.47.04.68,0,2.55,0,5.11,0,7.66,0,.51-.14.79-.73.76-.9-.04-1.8-.01-2.74-.01Z"/>
        <path class="cls-2" d="m600.15,155.58c-.15.11-.29.3-.44.3-.99.03-1.99.01-3.04.01v-9.17c1.13.08,2.22.16,3.3.25.05.11.11.22.17.32,0,.13,0,.25,0,.38-.01.01-.04.03-.04.04,0,.04.02.07.03.11-.01.37-.02.73-.03,1.1,0,1.12,0,2.25,0,3.37,0,.14,0,.27,0,.41,0,0,0,.01,0,.01,0,.59,0,1.17,0,1.76,0,0,0,.01,0,.01,0,.13,0,.25.01.37,0,0,0,.04,0,.04.02.18.04.37.05.55-.01,0-.04.02-.04.03,0,.04.02.07.03.11Z"/>
        <path class="cls-4" d="m535.08,118.56c-.19.24-.34.54-.57.72-1.26,1.01-2.55,2-3.83,2.99-.08.07-.21.08-.31.12-.29-.78-.59-1.55-.87-2.33-.13-.36-.21-.74-.33-1.18.22-.04.5-.11.77-.12,1.23-.04,2.45-.05,3.68-.09.49-.02.97-.08,1.46-.12Z"/>
        <path class="cls-2" d="m624.41,143.48v2.02c-1.01.37-2.04.17-3.06.2-.11,0-.23-.2-.33-.32-.03-.04-.01-.13,0-.2.03-.6.07-1.2.11-1.8.82-.03,1.65-.08,2.47-.08.26,0,.51.11.82.18Z"/>
        <path class="cls-2" d="m601.05,143.32c-.84.74-1.64,1.53-2.54,2.18-.34.25-.92.17-1.61.27.3-.57.58-.96.7-1.39.32-1.13,1.08-1.42,2.15-1.25.39.06.8,0,1.21,0,.03.06.06.12.1.18Z"/>
        <path class="cls-2" d="m600.1,152.3c0-1.13,0-2.25,0-3.37,0,1.13,0,2.25,0,3.37Z"/>
        <path class="cls-2" d="m648.13,153.26c0-.77,0-1.54,0-2.31,0,.77,0,1.54,0,2.31Z"/>
        <path class="cls-2" d="m600.14,147.3c-.06-.11-.11-.22-.17-.32.06.11.11.22.17.32Z"/>
        <path class="cls-2" d="m600.13,147.83s-.03-.07-.03-.11c0-.01.03-.03.04-.04,0,.05,0,.1,0,.15Z"/>
        <path class="cls-2" d="m648.14,153.8s-.03-.07-.04-.1c0-.01.03-.03.04-.04,0,.03.02.07.03.1,0,.01-.02.03-.03.05Z"/>
        <path class="cls-2" d="m648.17,154.32s-.03-.05-.05-.08c0,0,.03-.02.04-.03.03.04.03.07,0,.11Z"/>
        <path class="cls-2" d="m600.15,155.58s-.02-.07-.03-.11c0,0,.03-.02.04-.03,0,.05,0,.09-.01.14Z"/>
        <polygon class="cls-2" points="648.12 150.56 648.11 150.53 648.14 150.54 648.12 150.56"/>
        <polygon class="cls-2" points="600.1 152.72 600.1 152.7 600.13 152.71 600.1 152.72"/>
        <polygon class="cls-2" points="600.1 154.48 600.1 154.47 600.13 154.48 600.1 154.48"/>
        <polygon class="cls-2" points="600.11 154.89 600.11 154.86 600.14 154.88 600.11 154.89"/>
        <path class="cls-2" d="m578.45,63.25c.33.05.65.16.98.16,5.85.02,11.69.02,17.54.04,3.44.01,6.89.06,10.33.09.42,0,.7-.03.55.61-.61,2.5-1.48,4.85-3.14,6.88-1.56,1.91-3.64,3.02-5.82,3.99-.36.16-.79.21-1.18.21-5.57,0-11.15,0-16.72,0-3.85,0-7.7.01-11.56-.02-.44,0-.88-.27-1.32-.41,1.63-3.36,3.64-6.47,6.49-8.93,1.17-1.01,2.56-1.75,3.86-2.62Z"/>
        <path class="cls-2" d="m566.62,77.81c.47.07.94.2,1.42.21,4.6.03,9.2.04,13.8.05,3.81.01,7.62.02,11.43.03,1.92,0,3.84,0,5.93,0-.23.8-.39,1.45-.6,2.08-1.49,4.43-4.58,7.45-8.63,9.58-.36.19-.82.26-1.23.26-4.49.02-8.97.03-13.46,0-2.51-.01-5.01-.08-7.52-.13-.74-.02-1.48-.08-2.22-.12-.71-.27-.43-.88-.4-1.34.08-1.39.19-2.77.39-4.15.32-2.16.72-4.31,1.09-6.47Z"/>
        <path class="cls-2" d="m588.31,93.52c.46,0,.91,0,1.37,0,.11.2.23.39.35.59-.39,1.61-.99,3.14-1.94,4.5-1.05,1.5-2.25,2.89-3.91,3.75-1.4.72-2.81,1.44-4.29,1.98-.84.31-1.81.33-2.72.34-3.87.04-7.75.03-11.62.04-.1-.28-.29-.56-.29-.84-.02-2.55-.03-5.1.02-7.65.02-.99.18-1.99.28-2.98.75.02,1.5.05,2.25.05,5.34.05,10.68.1,16.02.14,0,0,0,0,0,0,.14,0,.27,0,.41,0,1,.02,2,.05,3,.07.04,0,.09,0,.13,0,.31,0,.63,0,.94,0,0,0,.02,0,.02,0Z"/>
        <path class="cls-2" d="m565.51,107.95h15.54c-.72,3.89-2.35,6.88-5.95,8.49-1.34.6-2.75.34-4.13.38-.96.04-1.92.09-2.88.13-.87.02-1.74.05-2.62.07-.07-.25-.21-.5-.21-.75.03-2.65.08-5.3.13-7.95,0-.13.08-.25.12-.37Z"/>
        <path class="cls-3" d="m590.02,94.12c-.12-.2-.23-.39-.35-.59.14-.02.28-.03.51-.06-.06.26-.11.46-.16.65Z"/>
        <path class="cls-3" d="m587.35,93.52s-.09,0-.13,0c.04,0,.09,0,.13,0Z"/>
        <polygon class="cls-3" points="588.31 93.52 588.3 93.52 588.3 93.49 588.31 93.52"/>
        <path class="cls-3" d="m583.82,93.45s0,0,0,0c0,0,0,0,0,0Z"/>
      </g>
    </g>
    <g id="N9MTHb">
      <g>
        <path class="cls-4" d="m318.64,84.32c.99,3.99,1.98,7.99,2.96,11.98,1.63,6.67,3.26,13.34,4.89,20.01.02.09.04.18.06.27q.68,2.9-2.26,2.9c-10.81,0-21.63,0-32.44,0-.28,0-.56,0-.84,0-1.16,0-1.26-.57-.71-1.41.92-1.39,1.89-2.75,2.82-4.13,6.24-9.27,12.61-18.46,18.67-27.85,3.84-5.95,13.19-6.77,17.42-.16,4.55,7.11,9.16,14.18,13.75,21.27,2.34,3.62,4.69,7.24,7.01,10.88.8,1.25.67,1.46-.81,1.48-2.18.02-4.36-.02-6.54.01-.89.01-1.48-.34-1.95-1.07-2.79-4.44-5.59-8.87-8.39-13.3-4.31-6.82-8.63-13.63-12.95-20.44-.12-.19-.27-.36-.4-.53-.1.04-.19.08-.29.11Z"/>
        <path class="cls-2" d="m229.74,119.23c-3.99,0-7.98,0-11.97,0-8.67,0-14.63-5.38-15.24-14.03-.25-3.55-.3-7.14.12-10.7.83-7.16,6.7-12.41,13.91-12.43,6.12-.02,12.25-.02,18.37,0,6.3.02,11.02,4.81,11.05,11.15.03,6.58-4.61,11.49-10.98,11.54-7.33.05-14.66.04-21.99.06-2.21,0-2.62.58-1.74,2.57,1.13,2.57,3.16,3.75,5.96,3.74,7.89-.02,15.77,0,23.66,0q3.72,0,3.72,3.78c0,.88-.06,1.77.02,2.64.12,1.27-.38,1.71-1.66,1.7-4.41-.06-8.81-.02-13.22-.02Zm-6.36-22.35h0c3.85,0,7.69.01,11.54-.02,1.91-.02,3.07-1.24,3.11-3.16.05-2.31-1.22-3.65-3.55-3.66-5.84-.02-11.67-.02-17.51,0-3.22,0-5.54,1.95-6.18,5.1-.32,1.57-.18,1.74,1.49,1.74,3.71,0,7.41,0,11.12,0Z"/>
        <path class="cls-2" d="m183.72,82.07c4.55,0,9.1.03,13.64-.02,1.22-.02,1.65.4,1.59,1.61-.08,1.62-.08,3.25.02,4.87.08,1.18-.34,1.51-1.49,1.51-8.49-.04-16.98-.01-25.48-.02-1.73,0-3.32.35-4.65,1.51-1.47,1.27-2.11,2.91-2.13,4.81-.02,2.74-.02,5.48,0,8.21.03,4.13,2.44,6.57,6.6,6.58,8.17.03,16.33.01,24.5.01q2.56,0,2.56,2.62c0,1.35-.03,2.69,0,4.04.03.98-.32,1.45-1.36,1.44-9-.02-18.01.15-27-.07-7.68-.19-13.51-6.53-13.54-14.21-.01-2.97-.02-5.94,0-8.91.06-7.72,6.33-13.94,14.05-13.97,4.22-.01,8.45,0,12.67,0Z"/>
        <path class="cls-2" d="m251.49,81.84c3.42-.92,5.12.87,6.78,3.64,4.98,8.37,10.25,16.56,15.39,24.83,1.51,2.43,2.86,2.48,4.43.04,5.83-9.04,11.66-18.09,17.44-27.16.66-1.04,1.41-1.43,2.61-1.38,2.04.08,4.08.01,6.12.03.45,0,1.02-.17,1.29.29.28.48-.19.86-.43,1.23-4.46,7-8.93,14-13.39,21-2.37,3.72-4.71,7.45-7.09,11.15-4.1,6.37-13.37,6.25-17.36-.18-6.51-10.48-13.06-20.94-19.58-31.41-.34-.54-1.03-1.12-.76-1.7.34-.73,1.25-.32,1.91-.37.88-.06,1.76-.01,2.64-.01Z"/>
        <path class="cls-2" d="m277.87,127.98c1.22-.11,2.32.11,3.31.65.42.23,1.32.41.79,1.12-.44.6-.77,1.81-1.99,1.16-.72-.38-1.46-.62-2.26-.51-1.32.17-2.22.87-2.6,2.18-.37,1.25.01,2.31.97,3.12,1.01.86,2.21.86,3.43.53.33-.09.53-.36.52-.74-.01-.47-.31-.67-.72-.68-1.14-.02-1.22-.76-1.14-1.63.1-1.04.9-.9,1.57-.9,2.7,0,3.1-.36,2.78,2.8-.36,3.56-.45,3.76-4.29,4.08-2.47.2-4.81-1.15-5.77-3.31-.99-2.25-.45-4.79,1.39-6.49,1.16-1.07,2.55-1.46,4.02-1.38Z"/>
        <path class="cls-2" d="m261.16,128c3.06,0,5.52,2.4,5.56,5.39.03,3.15-2.5,5.8-5.53,5.78-3.14-.02-5.66-2.53-5.67-5.64,0-3.24,2.34-5.55,5.64-5.54Zm3.37,5.47c-.01-1.73-1.38-3.11-3.07-3.08-1.71.02-3.2,1.53-3.17,3.22.03,1.69,1.54,3.04,3.36,3,1.58-.03,2.9-1.46,2.89-3.13Z"/>
        <path class="cls-2" d="m347.79,138.98c-1.05-.05-1.84-.17-2.54-.53-.55-.29-1.49-.39-1.14-1.38.35-.99,1.36-1.36,2.26-.95.33.15.69.28,1.05.3.6.04,1.34.09,1.52-.64.19-.79-.59-.94-1.12-1.17-.6-.25-1.24-.39-1.83-.65-2.22-.97-2.56-3.69-.63-5.17,1.49-1.15,3.16-1.23,4.87-.58.53.2,1.51.31,1.02,1.23-.34.64-.71,1.66-1.87,1.13-.48-.22-.97-.29-1.49-.2-.39.07-.72.24-.79.67-.07.42.17.72.55.87.65.25,1.3.47,1.96.7,1.38.47,2.17,1.37,2.16,2.88-.02,1.43-.93,2.7-2.31,3.14-.61.19-1.26.27-1.66.36Z"/>
        <path class="cls-2" d="m335.4,139.04c-2.48.01-4.61-1.4-5.43-3.6-.8-2.15-.16-4.7,1.58-6.22,1.72-1.51,4.4-1.88,6.37-.8.5.27,1.48.52.92,1.34-.41.6-.87,1.6-2.09.89-1.27-.74-2.62-.31-3.57.86-.87,1.08-.86,2.8,0,3.87.9,1.1,2.2,1.46,3.48.68,1.24-.76,1.78.18,2.46.78.42.37.06.74-.25,1.05-.73.72-2.02,1.16-3.48,1.17Z"/>
        <path class="cls-2" d="m300.93,128.01c.17.03.74.04,1.25.22.59.21,1.54.19,1.34,1.2-.18.91-1.35,1.45-2.24,1.19-.39-.11-.81-.19-1.22-.2-.49,0-.95.18-1.08.7-.14.59.34.82.77.99.64.26,1.33.42,1.97.68.99.4,1.77,1.02,1.89,2.18.13,1.28-.14,2.47-1.26,3.18-1.66,1.06-3.47,1.24-5.29.38-.49-.23-1.33-.52-.78-1.29.43-.59.79-1.64,1.92-1.08.63.31,1.27.59,1.99.39.41-.11.83-.28.86-.78.03-.42-.28-.69-.63-.84-.59-.25-1.21-.45-1.82-.67-1.82-.65-2.43-1.4-2.38-2.96.04-1.49.94-2.57,2.54-3.1.59-.19,1.18-.21,2.17-.2Z"/>
        <path class="cls-2" d="m312.56,128.06c1.07,0,2.13.01,3.2,0,.84-.01,1.15.41,1.14,1.21,0,.81-.35,1.13-1.18,1.16-2.04.09-2.04.12-2.04,2.12,0,1.62-.04,3.25.03,4.87.04.95-.25,1.34-1.24,1.34-.99,0-1.48-.31-1.42-1.36.09-1.8.09-3.61.22-5.41.09-1.22-.33-1.72-1.57-1.58-.85.09-1.59-.01-1.52-1.2.04-.73.28-1.14,1.05-1.14,1.11,0,2.23,0,3.34,0,0,0,0,0,0,0Z"/>
        <path class="cls-2" d="m244.13,133.67c0-1.43.02-2.87,0-4.3-.02-.88.46-1.09,1.22-1.09.76,0,1.41.06,1.41,1.06,0,1.85.05,3.7,0,5.55-.03,1.11.32,1.66,1.5,1.54.5-.05,1.02,0,1.52,0,.77,0,1.2.27,1.22,1.13.01.83-.23,1.36-1.14,1.36-1.57,0-3.14-.02-4.71,0-.86,0-1.07-.42-1.04-1.22.06-1.34.02-2.68.02-4.02h.01Z"/>
        <path class="cls-2" d="m288.15,133.63c0-1.34.03-2.69-.01-4.03-.03-.94.32-1.34,1.29-1.33.9,0,1.39.25,1.37,1.25-.03,2.69-.03,5.37,0,8.06.01,1.06-.51,1.35-1.46,1.35-1.02,0-1.24-.54-1.21-1.42.04-1.3.01-2.59.01-3.89Z"/>
        <path class="cls-2" d="m324.49,133.65c0,1.34-.03,2.69.01,4.03.03,1.04-.57,1.22-1.41,1.25-.87.02-1.26-.33-1.25-1.23.03-2.74.03-5.47,0-8.21,0-.9.37-1.23,1.25-1.22.86,0,1.44.17,1.41,1.21-.04,1.39-.01,2.78-.01,4.17Z"/>
      </g>
    </g>
  </g>
</svg>